<?xml version="1.0" encoding="UTF-8" standalone="no"?>
<!-- Created with Inkscape (http://www.inkscape.org/) -->

<svg
   xmlns:dc="http://purl.org/dc/elements/1.1/"
   xmlns:cc="http://creativecommons.org/ns#"
   xmlns:rdf="http://www.w3.org/1999/02/22-rdf-syntax-ns#"
   xmlns:svg="http://www.w3.org/2000/svg"
   xmlns="http://www.w3.org/2000/svg"
   xmlns:sodipodi="http://sodipodi.sourceforge.net/DTD/sodipodi-0.dtd"
   xmlns:inkscape="http://www.inkscape.org/namespaces/inkscape"
   width="128.68231mm"
   height="192.17142mm"
   viewBox="0 0 455.96095 680.92234"
   id="svg4346"
   version="1.1"
   inkscape:version="0.91 r13725"
   sodipodi:docname="hand.svg">
  <defs
     id="defs4348">
    <filter
       height="1.8909672"
       y="-0.44548362"
       width="1.1717603"
       x="-0.085880131"
       id="filter56140"
       style="color-interpolation-filters:sRGB"
       inkscape:collect="always">
      <feGaussianBlur
         id="feGaussianBlur56142"
         stdDeviation="0.40037387"
         inkscape:collect="always" />
    </filter>
    <filter
       height="1.5040003"
       y="-0.25200015"
       width="1.2016"
       x="-0.10079998"
       id="filter56208"
       style="color-interpolation-filters:sRGB"
       inkscape:collect="always">
      <feGaussianBlur
         id="feGaussianBlur56210"
         stdDeviation="0.4895103"
         inkscape:collect="always" />
    </filter>
    <filter
       height="1.7830012"
       y="-0.39150059"
       width="1.2982855"
       x="-0.14914277"
       id="filter56436"
       style="color-interpolation-filters:sRGB"
       inkscape:collect="always">
      <feGaussianBlur
         id="feGaussianBlur56438"
         stdDeviation="0.30419595"
         inkscape:collect="always" />
    </filter>
    <filter
       height="1.4467276"
       y="-0.22336379"
       width="1.2397072"
       x="-0.11985361"
       id="filter56488"
       style="color-interpolation-filters:sRGB"
       inkscape:collect="always">
      <feGaussianBlur
         id="feGaussianBlur56490"
         stdDeviation="0.47727258"
         inkscape:collect="always" />
    </filter>
    <filter
       height="2.9381256"
       y="-0.96906281"
       width="1.1984288"
       x="-0.09921436"
       id="filter56568"
       style="color-interpolation-filters:sRGB"
       inkscape:collect="always">
      <feGaussianBlur
         id="feGaussianBlur56570"
         stdDeviation="0.52035533"
         inkscape:collect="always" />
    </filter>
    <filter
       height="1.4056"
       y="-0.20280001"
       width="1.2535"
       x="-0.12675001"
       id="filter56652"
       style="color-interpolation-filters:sRGB"
       inkscape:collect="always">
      <feGaussianBlur
         id="feGaussianBlur56654"
         stdDeviation="0.29545425"
         inkscape:collect="always" />
    </filter>
    <filter
       height="1.3784"
       y="-0.18919998"
       width="1.2027143"
       x="-0.10135715"
       id="filter56752"
       style="color-interpolation-filters:sRGB"
       inkscape:collect="always">
      <feGaussianBlur
         id="feGaussianBlur56754"
         stdDeviation="0.44233145"
         inkscape:collect="always" />
    </filter>
    <filter
       height="2.5230608"
       y="-0.7615304"
       width="1.1302633"
       x="-0.065131634"
       id="filter56872"
       style="color-interpolation-filters:sRGB"
       inkscape:collect="always">
      <feGaussianBlur
         id="feGaussianBlur56874"
         stdDeviation="0.20979633"
         inkscape:collect="always" />
    </filter>
    <filter
       height="1.2981741"
       y="-0.14908706"
       width="1.1693333"
       x="-0.084666632"
       id="filter56908"
       style="color-interpolation-filters:sRGB"
       inkscape:collect="always">
      <feGaussianBlur
         id="feGaussianBlur56910"
         stdDeviation="0.35629695"
         inkscape:collect="always" />
    </filter>
    <filter
       height="1.3000002"
       y="-0.1500001"
       width="1.2357142"
       x="-0.11785708"
       id="filter56972"
       style="color-interpolation-filters:sRGB"
       inkscape:collect="always">
      <feGaussianBlur
         id="feGaussianBlur56974"
         stdDeviation="0.25716955"
         inkscape:collect="always" />
    </filter>
    <filter
       height="1.5346001"
       y="-0.26730007"
       width="1.1353418"
       x="-0.067670882"
       id="filter57012"
       style="color-interpolation-filters:sRGB"
       inkscape:collect="always">
      <feGaussianBlur
         id="feGaussianBlur57014"
         stdDeviation="0.5554863"
         inkscape:collect="always" />
    </filter>
    <filter
       height="1.6056153"
       y="-0.3028076"
       width="1.1496531"
       x="-0.074826553"
       id="filter57072"
       style="color-interpolation-filters:sRGB"
       inkscape:collect="always">
      <feGaussianBlur
         id="feGaussianBlur57074"
         stdDeviation="0.41984961"
         inkscape:collect="always" />
    </filter>
    <filter
       height="1.2662642"
       y="-0.13313212"
       width="1.122713"
       x="-0.061356515"
       id="filter57328"
       style="color-interpolation-filters:sRGB"
       inkscape:collect="always">
      <feGaussianBlur
         id="feGaussianBlur57330"
         stdDeviation="0.3665837"
         inkscape:collect="always" />
    </filter>
    <filter
       height="1.3213913"
       y="-0.16069572"
       width="1.2239999"
       x="-0.11199997"
       id="filter57392"
       style="color-interpolation-filters:sRGB"
       inkscape:collect="always">
      <feGaussianBlur
         id="feGaussianBlur57394"
         stdDeviation="0.38403998"
         inkscape:collect="always" />
    </filter>
    <filter
       height="1.2969997"
       y="-0.14849985"
       width="1.2376002"
       x="-0.1188001"
       id="filter57440"
       style="color-interpolation-filters:sRGB"
       inkscape:collect="always">
      <feGaussianBlur
         id="feGaussianBlur57442"
         stdDeviation="0.33946385"
         inkscape:collect="always" />
    </filter>
    <filter
       height="2.5312035"
       y="-0.76560169"
       width="1.1444528"
       x="-0.072226398"
       id="filter57484"
       style="color-interpolation-filters:sRGB"
       inkscape:collect="always">
      <feGaussianBlur
         id="feGaussianBlur57486"
         stdDeviation="0.5966334"
         inkscape:collect="always" />
    </filter>
    <filter
       height="2.6355772"
       y="-0.81778866"
       width="1.1724479"
       x="-0.086223967"
       id="filter57628"
       style="color-interpolation-filters:sRGB"
       inkscape:collect="always">
      <feGaussianBlur
         id="feGaussianBlur57630"
         stdDeviation="0.34045175"
         inkscape:collect="always" />
    </filter>
    <filter
       height="1.2124707"
       y="-0.10623537"
       width="1.138923"
       x="-0.069461502"
       id="filter57664"
       style="color-interpolation-filters:sRGB"
       inkscape:collect="always">
      <feGaussianBlur
         id="feGaussianBlur57666"
         stdDeviation="0.24794052"
         inkscape:collect="always" />
    </filter>
    <filter
       height="1.2687994"
       y="-0.13439971"
       width="1.1493335"
       x="-0.074666753"
       id="filter57708"
       style="color-interpolation-filters:sRGB"
       inkscape:collect="always">
      <feGaussianBlur
         id="feGaussianBlur57710"
         stdDeviation="0.184514"
         inkscape:collect="always" />
    </filter>
    <filter
       height="1.2942855"
       y="-0.14714277"
       width="1.202623"
       x="-0.10131152"
       id="filter57758"
       style="color-interpolation-filters:sRGB"
       inkscape:collect="always">
      <feGaussianBlur
         id="feGaussianBlur57760"
         stdDeviation="0.4242175"
         inkscape:collect="always" />
    </filter>
    <filter
       height="1.3927276"
       y="-0.19636378"
       width="1.0881633"
       x="-0.044081625"
       id="filter57794"
       style="color-interpolation-filters:sRGB"
       inkscape:collect="always">
      <feGaussianBlur
         id="feGaussianBlur57796"
         stdDeviation="0.1482702"
         inkscape:collect="always" />
    </filter>
    <filter
       height="1.4853337"
       y="-0.24266683"
       width="1.2298948"
       x="-0.11494733"
       id="filter57870"
       style="color-interpolation-filters:sRGB"
       inkscape:collect="always">
      <feGaussianBlur
         id="feGaussianBlur57872"
         stdDeviation="0.59967017"
         inkscape:collect="always" />
    </filter>
    <filter
       height="1.0960001"
       y="-0.048000049"
       width="1.0319999"
       x="-0.015999995"
       id="filter58831"
       style="color-interpolation-filters:sRGB"
       inkscape:collect="always">
      <feGaussianBlur
         id="feGaussianBlur58833"
         stdDeviation="0.14918415"
         inkscape:collect="always" />
    </filter>
    <filter
       height="2.2416253"
       y="-0.62081265"
       width="1.1328385"
       x="-0.066419259"
       id="filter58851"
       style="color-interpolation-filters:sRGB"
       inkscape:collect="always">
      <feGaussianBlur
         id="feGaussianBlur58853"
         stdDeviation="0.61284272"
         inkscape:collect="always" />
    </filter>
    <filter
       height="1.5781178"
       y="-0.28905895"
       width="1.1328108"
       x="-0.066405401"
       id="filter58867"
       style="color-interpolation-filters:sRGB"
       inkscape:collect="always">
      <feGaussianBlur
         id="feGaussianBlur58869"
         stdDeviation="0.47727247"
         inkscape:collect="always" />
    </filter>
    <filter
       height="1.3552094"
       y="-0.17760471"
       width="1.0903045"
       x="-0.04515224"
       id="filter58875"
       style="color-interpolation-filters:sRGB"
       inkscape:collect="always">
      <feGaussianBlur
         id="feGaussianBlur58877"
         stdDeviation="0.5653414"
         inkscape:collect="always" />
    </filter>
    <filter
       height="1.5833331"
       y="-0.29166657"
       width="1.1510792"
       x="-0.075539574"
       id="filter58895"
       style="color-interpolation-filters:sRGB"
       inkscape:collect="always">
      <feGaussianBlur
         id="feGaussianBlur58897"
         stdDeviation="0.54551125"
         inkscape:collect="always" />
    </filter>
    <filter
       height="1.3578397"
       y="-0.17891987"
       width="1.1097668"
       x="-0.054883447"
       id="filter58907"
       style="color-interpolation-filters:sRGB"
       inkscape:collect="always">
      <feGaussianBlur
         id="feGaussianBlur58909"
         stdDeviation="0.46477568"
         inkscape:collect="always" />
    </filter>
  </defs>
  <sodipodi:namedview
     id="base"
     pagecolor="#ffffff"
     bordercolor="#666666"
     borderopacity="1.0"
     inkscape:pageopacity="0.0"
     inkscape:pageshadow="2"
     inkscape:zoom="0.35"
     inkscape:cx="371.5519"
     inkscape:cy="151.88975"
     inkscape:document-units="px"
     inkscape:current-layer="layer1"
     showgrid="false"
     fit-margin-top="0"
     fit-margin-left="0"
     fit-margin-right="0"
     fit-margin-bottom="0"
     inkscape:window-width="1280"
     inkscape:window-height="731"
     inkscape:window-x="0"
     inkscape:window-y="1"
     inkscape:window-maximized="1" />
  <metadata
     id="metadata4351">
    <rdf:RDF>
      <cc:Work
         rdf:about="">
        <dc:format>image/svg+xml</dc:format>
        <dc:type
           rdf:resource="http://purl.org/dc/dcmitype/StillImage" />
        <dc:title></dc:title>
      </cc:Work>
    </rdf:RDF>
  </metadata>
  <g
     inkscape:label="Layer 1"
     inkscape:groupmode="layer"
     id="layer1"
     transform="translate(-3.4480969,-3.3296176)">
    <g
       id="g3579"
       transform="translate(-149.36619,-148.41985)">
      <path
         sodipodi:nodetypes="aaaaaaaaaaaaaaaaaaaaaaaaaaaaacaaaaaaaaaccaaaaaaaaaaaaaaaacccaaaaaaaaaaaaaaaaaaaaaaaaaccaaacaaaaaaaaaaaccaaaaaaaaaaaaaaaaaacccaaaaaaaaaaaaaaaaaaaaaaaccaaaaaaaaaaaaacaaaaaaaaaaaaaaaaaaaaaaaccccaaaaaaaaaaaaaaaaaaccaaaaaaaaaaaaaaaaccaaaaaaaaaaaaaaaaaaaaaaaaaaaaaaaaaacaaaaaaaaaaaaaaaaaccaaaaaaaaaaccaaaaaaaaaaaaaaaaaaaaaaaaaaaaaaaaaacca"
         inkscape:connector-curvature="0"
         id="path55230"
         d="m 195.20032,814.19326 c 0.36387,-5.52771 0.88472,-11.04457 1.22768,-16.57362 0.25366,-4.0895 0.68182,-8.17995 0.61384,-12.27675 -0.0817,-4.92704 -1.02289,-9.80864 -1.22768,-14.7321 -0.18708,-4.49758 0,-9.00295 0,-13.50442 0,-4.9107 0.70483,-9.87225 0,-14.7321 -0.82701,-5.70228 -3.1553,-11.08558 -4.9107,-16.57361 -2.10932,-6.59452 -4.57164,-13.0715 -6.75221,-19.6428 -1.69152,-5.09751 -3.48718,-10.16719 -4.9107,-15.34594 -1.44708,-5.26448 -2.77243,-10.5765 -3.68303,-15.95977 -1.20622,-7.1309 -1.64827,-14.37093 -2.34595,-21.5694 -0.70061,-7.22868 -1.74308,-14.44739 -1.84759,-21.70919 -0.1975,-13.72315 1.64278,-27.40052 2.30949,-41.10888 0.54645,-11.23571 1.01056,-22.47578 1.38569,-33.71851 0.20031,-6.0033 0.47322,-12.00738 0.4619,-18.01401 -0.01,-5.23709 0.0142,-10.48909 -0.4619,-15.70451 -0.36817,-4.03344 -1.77842,-7.95972 -1.84759,-12.00934 -0.11122,-6.51128 1.71472,-12.91469 2.30949,-19.3997 0.43682,-4.76287 0.84443,-9.53662 0.92379,-14.31882 0.16358,-9.85727 -0.39163,-19.71719 -0.92379,-29.56144 -0.32509,-6.01363 -0.63053,-12.03913 -1.38569,-18.014 -0.66655,-5.27377 -2.30772,-10.40905 -2.77139,-15.70452 -0.18802,-2.1473 0,-4.31104 0,-6.46656 l 0,-14.78072 c 0,-2.46345 0.0513,-4.92744 0,-7.39036 -0.077,-3.69759 -0.31101,-7.39024 -0.4619,-11.08555 -0.15717,-3.84901 -0.38489,-7.69598 -0.46189,-11.54743 -0.10155,-5.07986 -0.2222,-10.16661 0,-15.24262 0.38528,-8.80132 0.3438,-17.7405 2.30948,-26.32816 1.06552,-4.65504 5.08088,-13.39503 5.08088,-13.39503 0,0 1.50709,5.48162 2.45114,8.16029 0.77001,2.18484 1.39742,4.4683 2.61569,6.43864 1.17459,1.89971 2.64156,3.68766 4.42656,5.03018 1.43798,1.08152 3.11244,1.97862 4.88245,2.30191 2.03415,0.37154 4.15757,-0.0792 6.18395,-0.49105 1.4549,-0.29567 3.02095,-0.54037 4.22535,-1.40845 1.90433,-1.37256 3.17319,-3.53539 4.22536,-5.6338 1.0654,-2.12479 1.41304,-4.54084 2.01207,-6.84105 0.76268,-2.92862 1.59131,-5.85622 2.01207,-8.85312 0.50433,-3.59208 0.60362,-10.86519 0.60362,-10.86519 l 0,-1.81086 c 0,0 3.26421,5.07797 4.42656,7.84708 1.2159,2.89669 1.88053,6.00004 2.6157,9.05433 0.99117,4.11784 1.72725,8.29552 2.41448,12.47484 0.64794,3.94037 1.31912,7.88853 1.60966,11.87123 0.44896,6.15437 0.28861,12.34097 0.20121,18.51107 -0.0485,3.42281 -0.26555,6.84115 -0.40242,10.26157 -0.13151,3.28649 -0.33533,6.57071 -0.40241,9.85915 -0.0629,3.08454 -0.28335,6.1834 0,9.25554 0.26942,2.92106 0.81994,5.82675 1.60966,8.65191 0.86855,3.10718 2.45099,5.97715 3.42052,9.05432 1.14387,3.63049 1.9634,7.35689 2.8169,11.0664 0.52204,2.2689 1.03735,4.54264 1.40845,6.84105 0.36598,2.26672 0.67046,4.5489 0.80483,6.84104 0.18055,3.07989 -0.16171,6.1746 0,9.25554 0.13432,2.55918 0.38371,5.118 0.80483,7.64587 0.54274,3.25787 1.37954,6.46214 2.21328,9.65795 1.02329,3.92237 3.42052,11.67002 3.42052,11.67002 l 1.40845,2.8169 2.41449,-1.81086 c 0,0 2.18557,-2.2287 2.8169,-3.62173 1.46602,-3.2348 1.53195,-6.94389 2.01207,-10.46278 0.78233,-5.73389 0.92032,-11.53743 1.40846,-17.30382 0.51681,-6.10499 1.16488,-12.1992 1.60965,-18.30986 0.5072,-6.96835 0.7629,-13.95292 1.20725,-20.92556 0.18386,-2.88513 0.34761,-5.77229 0.60362,-8.65191 0.22104,-2.48621 0.70418,-4.95068 0.80483,-7.44467 0.1001,-2.48044 -0.0274,-4.96829 -0.20121,-7.44466 -0.20799,-2.96274 -0.8381,-5.88784 -1.00604,-8.85312 -0.21996,-3.88378 0,-7.78001 0,-11.67002 0,-2.61569 -0.17712,-5.23739 0,-7.84708 0.10084,-1.48576 0.33023,-2.9627 0.60363,-4.42656 0.2658,-1.42322 0.56833,-2.84528 1.00603,-4.22536 0.54595,-1.72139 1.4254,-3.32224 2.01207,-5.03018 1.02057,-2.97113 1.90956,-5.99318 2.6157,-9.05432 0.70388,-3.05136 1.22085,-6.14828 1.60966,-9.25554 0.65145,-5.20624 0.84238,-10.46002 1.20724,-15.69416 0.52338,-7.50817 0.99255,-15.02032 1.40845,-22.53521 0.30797,-5.56468 0.15563,-11.16495 0.80483,-16.7002 0.38154,-3.25312 1.12456,-6.45524 1.81087,-9.65795 0.8385,-3.91289 1.9926,-7.75411 2.8169,-11.67002 0.70186,-3.33428 1.20429,-6.70744 1.81086,-10.06036 0.40047,-2.21363 0.64895,-4.46065 1.20725,-6.63984 0.4211,-1.64365 0.9171,-3.28002 1.60965,-4.82898 0.44142,-0.98727 1.05469,-1.8887 1.60966,-2.8169 0.64939,-1.08612 2.01207,-3.21931 2.01207,-3.21931 l 1.40845,-1.81087 c 0,0 -0.0335,7.24362 0,10.86519 0.0335,3.6222 0.0362,7.2466 0.20121,10.86519 0.16844,3.69471 0.14811,7.42663 0.80483,11.0664 0.22912,1.26984 0.15544,1.32167 1.08621,3.71552 1.04389,1.54048 1.19435,1.63578 1.9319,2.3207 0.84554,0.7852 1.82115,1.429 2.8169,2.01207 1.33854,0.7838 2.73077,1.51753 4.21174,1.9788 1.62721,0.50682 3.34525,0.69794 5.04379,0.8381 1.53736,0.12686 3.09269,0.152 4.62777,0 1.36129,-0.13479 2.73024,-0.36088 4.02415,-0.80483 1.41853,-0.48671 2.77305,-1.18509 4.02414,-2.01207 1.46864,-0.97077 2.87112,-2.09017 4.02414,-3.42052 1.40153,-1.61708 2.46624,-3.51725 3.42053,-5.4326 0.92767,-1.86192 1.67818,-3.82479 2.21328,-5.83501 0.76865,-2.8876 1.08558,-5.88246 1.40845,-8.85312 0.49364,-4.54183 0.80483,-13.68209 0.80483,-13.68209 l 0.2012,-3.42052 c 0,0 1.78934,3.24805 2.21328,5.03018 0.59064,2.48287 0.31785,5.09512 0.40242,7.64587 0.16224,4.89381 0.34019,9.7936 0.20121,14.68813 -0.16221,5.71276 -1.00592,11.39111 -1.20725,17.10262 -0.1583,4.49084 0.14148,8.98948 0,13.48088 -0.23486,7.45576 -0.93358,14.88968 -1.40845,22.33401 -0.26527,4.15848 -0.36275,8.33144 -0.80483,12.47485 -0.48202,4.51776 -1.63052,8.95353 -2.01207,13.48088 -0.28168,3.34228 -0.16767,6.7064 -0.20121,10.06036 -0.0295,2.95089 -0.23695,5.91161 0,8.85312 0.20186,2.50586 0.78506,4.9664 1.20725,7.44467 0.32036,1.88055 0.77659,3.74001 1.00603,5.6338 0.50118,4.13668 0.60559,8.31269 0.80483,12.47485 0.20534,4.28961 0.58885,8.5868 0.40242,12.87727 -0.17299,3.98107 -0.96144,7.91154 -1.40845,11.87122 -0.21187,1.87676 -0.47389,3.74959 -0.60363,5.63381 -0.29961,4.35125 -0.33533,8.71743 -0.40241,13.07847 -0.0763,4.96252 -0.0973,9.92717 0,14.88933 0.0671,3.4225 0.40241,10.26157 0.40241,10.26157 l 0.80483,2.01208 1.60966,-2.6157 c 0,0 1.12589,-3.91715 1.81087,-5.83501 0.90065,-2.52172 2.27755,-4.87138 3.0181,-7.44467 1.80837,-6.28377 1.81225,-12.97796 3.42053,-19.31589 0.57382,-2.26133 1.70281,-4.36337 2.21328,-6.63984 0.36951,-1.64783 0.46369,-3.34723 0.60362,-5.03018 0.23922,-2.87716 -0.0168,-5.79542 0.40241,-8.65191 0.44172,-3.00962 1.40307,-5.92114 2.21328,-8.85312 0.61599,-2.22913 1.49962,-4.38466 2.01208,-6.63984 0.58642,-2.58068 0.79234,-5.23334 1.20724,-7.84708 0.586,-3.69164 1.33645,-7.35877 1.81086,-11.0664 0.46164,-3.60781 0.60308,-7.25036 1.00604,-10.86519 0.3447,-3.09216 0.6402,-6.19633 1.20724,-9.25554 0.72932,-3.93471 1.87523,-7.78067 2.81691,-11.67002 1.1369,-4.69563 2.40822,-9.36044 3.42052,-14.0845 0.61465,-2.86834 1.15469,-5.75395 1.60966,-8.65191 0.81802,-5.21039 1.27568,-10.47162 2.01207,-15.69417 0.61584,-4.36758 1.44397,-8.70443 2.01207,-13.07847 0.57333,-4.41431 0.93897,-8.85312 1.40845,-13.27968 0.46948,-4.42656 0.79522,-8.87073 1.40845,-13.27968 0.5438,-3.90977 1.59998,-7.74419 2.01208,-11.67002 0.36437,-3.4711 0.0612,-6.98932 0.40241,-10.46277 0.4183,-4.25775 1.1786,-8.47978 2.01207,-12.67606 0.61799,-3.11138 1.08886,-6.28934 2.21328,-9.25553 0.8083,-2.13229 3.21932,-6.03622 3.21932,-6.03622 l 1.81086,-2.61569 c 0,0 -0.37603,9.92448 -0.40241,14.88933 -0.0217,4.09171 0.0703,8.18397 0.20121,12.27364 0.0902,2.81865 -0.0477,5.66677 0.40241,8.45071 0.27792,1.71889 0.7498,3.41835 1.40845,5.03018 0.57908,1.41713 1.17131,2.90259 2.21328,4.02414 1.08892,1.17208 2.57391,1.94019 4.02415,2.6157 1.46166,0.68083 3.04199,1.11637 4.62776,1.40845 1.91737,0.35316 3.8871,0.48407 5.83501,0.40241 1.76276,-0.0739 3.5748,-0.19778 5.23139,-0.80483 2.28969,-0.83905 4.47426,-2.13831 6.23743,-3.82293 1.81573,-1.73484 3.10731,-3.98875 4.22535,-6.23743 1.67134,-3.3615 2.56849,-7.06069 3.62173,-10.66398 1.25961,-4.3093 2.28571,-8.68699 3.21931,-13.07847 0.55262,-2.5994 1.40845,-7.84709 1.40845,-7.84709 0,0 1.25842,2.11899 1.81087,3.21932 0.59278,1.18065 1.25564,2.34894 1.60966,3.62173 0.2898,1.0419 0.23313,2.15119 0.40241,3.21932 0.27795,1.75386 0.77887,3.47022 1.00604,5.23138 0.38696,2.99996 0.53381,6.03033 0.60362,9.05433 0.0759,3.2862 -0.10684,6.57344 -0.20121,9.85916 -0.10405,3.62272 -0.51592,7.24275 -0.40241,10.86519 0.0633,2.02111 0.50289,4.01662 0.60362,6.03621 0.12362,2.47848 0.10759,4.96545 0,7.44467 -0.2014,4.64086 -0.65256,9.27131 -1.20724,13.8833 -0.52668,4.37922 -1.46134,8.70221 -2.01208,13.07847 -0.42914,3.41003 -0.72768,6.83594 -1.00603,10.26157 -0.50621,6.22986 -1.04815,12.46391 -1.20725,18.71228 -0.12634,4.96195 -0.2165,9.94337 0.20121,14.88933 0.18281,2.16455 0.76426,4.27988 1.00604,6.43863 0.32923,2.93951 0.64337,5.8955 0.60362,8.85312 -0.057,4.24409 -0.67634,8.46492 -1.20724,12.67606 -0.59444,4.71513 -1.20003,9.44133 -2.21328,14.08451 -1.32191,6.05761 -3.25806,11.96592 -5.03018,17.90744 -0.7639,2.56119 -1.72892,5.06262 -2.41449,7.64588 -0.65125,2.45395 -1.20316,4.93852 -1.60966,7.44466 -1.18822,7.32563 -1.52891,14.76446 -2.41449,22.1328 -0.79912,6.64899 -1.86947,13.26438 -2.61569,19.91952 -0.32275,2.87838 -0.80483,8.65191 -0.80483,8.65191 l -0.20121,3.62173 0.40242,0 1.20724,-0.60362 c 0,0 1.88547,-1.90497 2.6157,-3.01811 2.97825,-4.54 4.69817,-9.79049 7.04225,-14.68813 2.88808,-6.03425 5.5174,-12.19865 8.65191,-18.10865 1.49295,-2.8149 3.31084,-5.4481 4.82897,-8.2495 1.42909,-2.63709 2.73639,-5.33938 4.02415,-8.04829 2.59045,-5.44922 5.10964,-10.93553 7.44467,-16.49899 1.50388,-3.58316 2.73546,-7.27619 4.22535,-10.86519 1.20885,-2.91201 2.40436,-5.8361 3.82294,-8.65191 2.01365,-3.997 4.81684,-7.58255 6.63984,-11.67003 1.72778,-3.87399 2.66628,-8.05382 4.02414,-12.07243 1.65665,-4.90287 3.61891,-9.70908 5.03018,-14.68813 1.57514,-5.55721 2.65335,-11.24494 3.82294,-16.90141 1.10539,-5.34594 1.86539,-10.76064 3.01811,-16.09658 0.71445,-3.30721 1.58748,-6.57828 2.41448,-9.85915 0.91449,-3.62799 1.77266,-7.2724 2.81691,-10.86519 1.21947,-4.19565 2.34404,-8.4415 4.02414,-12.47485 0.84203,-2.02142 1.92942,-3.93503 3.01811,-5.83501 0.74933,-1.30772 1.49135,-2.63154 2.41449,-3.82294 0.95901,-1.23768 3.21931,-3.42052 3.21931,-3.42052 l 0.80483,-0.60362 c 0,0 -0.69415,5.8995 -1.00603,8.85311 -0.29013,2.74761 -0.59989,5.49422 -0.80483,8.2495 -0.19428,2.61192 -0.33533,5.22881 -0.40242,7.84708 -0.0378,1.47504 -0.22479,2.96826 0,4.42656 0.20358,1.32074 0.58922,2.6381 1.20725,3.82294 0.50873,0.97531 1.25728,1.8155 2.01207,2.6157 0.91348,0.96844 1.93418,1.84277 3.01811,2.61569 1.19888,0.85489 2.4551,1.66811 3.82293,2.21328 1.34494,0.53605 2.78741,0.83721 4.22536,1.00604 1.79851,0.21116 3.63993,0.2561 5.43259,0 1.65988,-0.23713 3.33279,-0.6516 4.82898,-1.40846 1.28079,-0.6479 2.38455,-1.62223 3.42052,-2.61569 1.13423,-1.08769 2.17711,-2.29423 3.01811,-3.62173 1.10804,-1.74902 1.81335,-3.72511 2.61569,-5.6338 1.25024,-2.9742 2.31902,-6.02189 3.42052,-9.05433 1.04282,-2.87088 2.09516,-5.74029 3.01811,-8.65191 0.44262,-1.39634 1.20725,-4.22535 1.20725,-4.22535 l 1.40845,1.00603 c 0,0 0.72627,1.4527 1.00603,2.21328 0.33711,0.91651 0.57969,1.86667 0.80483,2.8169 0.58226,2.45754 1.12702,4.93482 1.40845,7.44467 0.41132,3.66825 0.4654,7.3757 0.40242,11.0664 -0.0975,5.71423 -0.79952,11.40212 -1.20725,17.10262 -0.33103,4.62808 -0.27296,9.30168 -1.00603,13.8833 -0.9175,5.73425 -2.71612,11.29376 -4.22535,16.90141 -0.94335,3.50507 -2.1048,6.94976 -3.01811,10.46277 -1.19531,4.59772 -2.33215,9.21632 -3.21932,13.8833 -0.59518,3.13095 -1.05127,6.2898 -1.40845,9.45674 -0.49003,4.34482 -0.79275,8.71131 -1.00604,13.07847 -0.15708,3.21618 0.25577,6.47053 -0.2012,9.65795 -0.36481,2.54458 -1.24679,4.99063 -2.01208,7.44467 -1.67354,5.36652 -3.6941,10.61921 -5.6338,15.89537 -2.08025,5.65849 -4.23288,11.29065 -6.43863,16.90141 -1.95941,4.98414 -4.20952,9.85505 -6.03622,14.88934 -1.34565,3.70853 -2.32513,7.54164 -3.62173,11.2676 -2.07168,5.95326 -4.3864,11.81938 -6.63984,17.70624 -1.64744,4.30375 -3.56875,8.50685 -5.03018,12.87726 -0.55219,1.65134 -1.03555,3.32936 -1.40845,5.03018 -0.36366,1.65866 -0.67027,3.33747 -0.80483,5.03018 -0.22854,2.8749 0.0588,5.76855 0,8.65192 -0.0671,3.28844 -0.0116,6.59333 -0.40241,9.85915 -0.32506,2.71651 -0.9772,5.3865 -1.60966,8.04829 -0.93285,3.926 -1.72991,7.91964 -3.21932,11.67002 -0.95233,2.39802 -2.59307,4.47477 -3.62173,6.84105 -0.73568,1.69232 -1.38229,3.43653 -1.81086,5.23139 -0.34585,1.44845 -0.43172,2.94733 -0.60362,4.42655 -0.40445,3.48026 -0.67734,6.97455 -1.00604,10.46278 -0.41072,4.35871 -1.12724,8.70118 -1.20724,13.07847 -0.0442,2.41781 0.0775,4.84718 0.40241,7.24346 0.21212,1.5643 0.27357,3.22937 1.00604,4.62777 0.63852,1.21904 1.75634,2.1412 2.8169,3.01811 1.64918,1.36361 3.45361,2.60637 5.4326,3.42052 1.14369,0.47051 3.62173,0.80483 3.62173,0.80483 0,0 2.15557,-0.86398 3.0181,-1.60966 1.19744,-1.03521 1.83169,-2.58404 2.81691,-3.82294 1.15461,-1.45191 2.51394,-2.73741 3.62173,-4.22535 1.33321,-1.79071 2.62306,-3.63712 3.62173,-5.6338 1.3765,-2.7521 2.29179,-5.71788 3.21931,-8.65191 0.87772,-2.77648 1.39647,-5.6557 2.21328,-8.45071 1.2851,-4.39743 2.65357,-8.77517 4.22535,-13.07847 2.31169,-6.32906 4.91846,-12.55093 7.64588,-18.71227 2.01575,-4.55365 4.07034,-9.10023 6.43863,-13.48089 1.04482,-1.93261 2.22174,-3.79273 3.42052,-5.6338 2.94416,-4.52158 5.8425,-9.1007 9.25554,-13.27968 3.69098,-4.51929 7.81901,-8.68159 12.07243,-12.67605 3.57432,-3.35671 7.3542,-6.50235 11.26761,-9.45674 4.20153,-3.1719 8.49364,-6.266 13.07847,-8.85312 3.34529,-1.88768 6.81053,-3.63929 10.46278,-4.82898 1.30068,-0.42368 2.6652,-0.64811 4.02414,-0.80483 2.06652,-0.23833 4.15747,-0.16766 6.23742,-0.2012 1.40827,-0.0227 4.22536,0 4.22536,0 l 1.40845,0.2012 c 0,0 -3.83689,5.09485 -5.4326,7.84709 -1.64012,2.82885 -3.00177,5.82076 -4.22535,8.85312 -1.03172,2.55688 -1.84482,5.19985 -2.61569,7.84708 -0.77315,2.65505 -1.61713,5.31131 -2.01208,8.04829 -0.23009,1.59454 -0.35014,3.22482 -0.2012,4.82897 0.16544,1.78196 0.58411,3.55375 1.20724,5.23139 0.5014,1.34992 1.26413,2.59238 2.01207,3.82294 0.97601,1.60578 1.97802,3.21698 3.21932,4.62776 1.25467,1.42598 2.72687,2.65582 4.22535,3.82294 1.14469,0.89156 2.23306,1.99403 3.62173,2.41449 0.89868,0.2721 2.8169,0 2.8169,0 l 0.60362,-0.20121 c 0,0 -2.31764,4.07841 -3.21931,6.23743 -1.16883,2.79871 -1.71001,5.82813 -2.8169,8.65191 -1.05138,2.68214 -2.56098,5.16863 -3.62173,7.84708 -0.54665,1.38033 -0.97823,2.80442 -1.40846,4.22535 -0.6648,2.19568 -1.24129,4.41755 -1.81086,6.63984 -0.42811,1.67035 -0.68446,3.387 -1.20724,5.03018 -0.54751,1.72089 -1.22421,3.40522 -2.01208,5.03018 -1.11421,2.29805 -2.6224,4.38569 -3.82293,6.63984 -1.93169,3.62699 -3.55272,7.41229 -5.4326,11.0664 -1.81205,3.52227 -3.64412,7.03771 -5.6338,10.46278 -1.58913,2.73556 -3.50186,5.2783 -5.03018,8.04829 -2.08674,3.7821 -3.7125,7.80125 -5.63381,11.67002 -1.57431,3.17005 -3.09117,6.37328 -4.82897,9.45674 -2.4399,4.32924 -5.23449,8.44878 -7.84708,12.67605 -1.94731,3.15082 -4.09267,6.18811 -5.83501,9.45675 -1.14361,2.14543 -2.16384,4.36366 -3.01811,6.63983 -1.7223,4.589 -2.53961,9.48195 -4.22535,14.08451 -1.55984,4.25881 -3.09014,8.59111 -5.4326,12.47485 -1.77441,2.94192 -4.23787,5.41009 -6.43863,8.04829 -2.61895,3.13953 -5.56792,6.00541 -8.04829,9.25553 -1.76048,2.30682 -3.17609,4.85835 -4.82897,7.24346 -4.70741,6.79279 -9.59287,13.46117 -14.48693,20.12073 -4.96462,6.75558 -10.30558,13.23672 -15.09054,20.12072 -3.1855,4.58291 -5.90657,9.47559 -9.05432,14.08451 -3.22321,4.71941 -6.4982,9.4142 -10.06037,13.8833 -2.66629,3.34512 -5.49585,6.56476 -8.4507,9.65795 -3.14554,3.29281 -6.27449,6.64833 -9.85916,9.45674 -3.7496,2.93763 -8.22257,4.84092 -12.07243,7.64587 -2.54024,1.85078 -4.94272,3.89501 -7.24346,6.03622 -3.6806,3.42541 -7.04603,7.17655 -10.46278,10.86519 -3.35726,3.62442 -6.68136,7.28365 -9.85915,11.0664 -2.64111,3.14389 -5.34648,6.25615 -7.64588,9.65795 -1.51405,2.23994 -2.86873,4.59793 -4.02414,7.04225 -1.2882,2.72526 -2.51772,5.51911 -3.21932,8.45071 -0.5911,2.46986 -0.80483,7.57619 -0.80483,7.57619 l -175.0503,0 c 0,0 0.64104,-11.98873 1.03533,-17.97854 z"
         style="fill:none;fill-rule:evenodd;stroke:#000000;stroke-width:1px;stroke-linecap:butt;stroke-linejoin:miter;stroke-opacity:1" />
      <g
         id="g3545">
        <path
           style="fill:none;fill-rule:evenodd;stroke:#000000;stroke-width:1.10000002;stroke-linecap:round;stroke-linejoin:miter;stroke-miterlimit:4;stroke-dasharray:none;stroke-opacity:1"
           d="m 185.54779,405.50906 c 0,0 1.17113,0.92857 1.8648,1.1655 1.47792,0.50479 3.10091,0.4209 4.662,0.4662 1.86564,0.0541 5.59441,-0.2331 5.59441,-0.2331"
           id="path55234"
           inkscape:connector-curvature="0"
           sodipodi:nodetypes="caac" />
        <path
           style="fill:none;fill-rule:evenodd;stroke:#000000;stroke-width:0.69999999;stroke-linecap:round;stroke-linejoin:miter;stroke-miterlimit:4;stroke-dasharray:none;stroke-opacity:1"
           d="m 215.61772,402.71186 c 0,0 1.64628,-0.63089 2.331,-1.16551 0.56464,-0.44086 1.3986,-1.6317 1.3986,-1.6317"
           id="path55236"
           inkscape:connector-curvature="0"
           sodipodi:nodetypes="cac" />
        <path
           style="fill:none;fill-rule:evenodd;stroke:#000000;stroke-width:1.29999995;stroke-linecap:round;stroke-linejoin:miter;stroke-miterlimit:4;stroke-dasharray:none;stroke-opacity:1;filter:url(#filter58831)"
           d="m 194.63869,400.38085 c 0,0 5.02422,-0.52994 7.45921,-1.1655 2.80699,-0.73266 5.48954,-1.89338 8.15851,-3.0303 2.30198,-0.98059 6.75991,-3.2634 6.75991,-3.2634"
           id="path55238"
           inkscape:connector-curvature="0"
           sodipodi:nodetypes="caac" />
        <path
           style="fill:none;fill-rule:evenodd;stroke:#000000;stroke-width:0.89999998;stroke-linecap:round;stroke-linejoin:miter;stroke-miterlimit:4;stroke-dasharray:none;stroke-opacity:1"
           d="m 188.34499,397.11745 c 0,0 3.11108,-0.76487 4.662,-1.1655 1.1679,-0.30169 3.49651,-0.9324 3.49651,-0.9324"
           id="path55240"
           inkscape:connector-curvature="0"
           sodipodi:nodetypes="cac" />
        <path
           style="fill:none;fill-rule:evenodd;stroke:#000000;stroke-width:1px;stroke-linecap:round;stroke-linejoin:miter;stroke-opacity:1"
           d="m 202.0979,388.95894 c 0,0 4.81591,-0.33607 7.22611,-0.4662 1.78619,-0.0964 5.3613,-0.2331 5.3613,-0.2331"
           id="path55242"
           inkscape:connector-curvature="0"
           sodipodi:nodetypes="cac" />
        <path
           style="fill:none;fill-rule:evenodd;stroke:#000000;stroke-width:1.10000002;stroke-linecap:round;stroke-linejoin:miter;stroke-miterlimit:4;stroke-dasharray:none;stroke-opacity:1;filter:url(#filter56568)"
           d="m 273.42657,344.4368 c 0,0 3.38615,0.97003 5.12821,1.1655 2.4709,0.27725 7.45921,0 7.45921,0"
           id="path56044"
           inkscape:connector-curvature="0"
           sodipodi:nodetypes="cac" />
        <path
           style="fill:none;fill-rule:evenodd;stroke:#000000;stroke-width:1.29999995;stroke-linecap:round;stroke-linejoin:miter;stroke-miterlimit:4;stroke-dasharray:none;stroke-opacity:1;filter:url(#filter56488)"
           d="m 300.4662,342.57199 c 0,0 4.00366,-1.30601 5.82751,-2.331 1.35472,-0.76134 3.7296,-2.7972 3.7296,-2.7972"
           id="path56046"
           inkscape:connector-curvature="0"
           sodipodi:nodetypes="cac" />
        <path
           style="fill:none;fill-rule:evenodd;stroke:#000000;stroke-width:0.80000001;stroke-linecap:round;stroke-linejoin:miter;stroke-miterlimit:4;stroke-dasharray:none;stroke-opacity:1;filter:url(#filter56436)"
           d="m 302.0979,330.68388 4.89511,-1.8648"
           id="path56048"
           inkscape:connector-curvature="0" />
        <path
           style="fill:none;fill-rule:evenodd;stroke:#000000;stroke-width:1.70000005;stroke-linecap:round;stroke-linejoin:miter;stroke-miterlimit:4;stroke-dasharray:none;stroke-opacity:1;filter:url(#filter58851)"
           d="m 277.15618,335.11279 c 0,0 2.18662,1.73509 3.4965,2.0979 1.9469,0.53926 4.0446,0.13012 6.06061,0 4.22212,-0.27252 12.58741,-1.6317 12.58741,-1.6317"
           id="path56050"
           inkscape:connector-curvature="0"
           sodipodi:nodetypes="caac" />
        <path
           style="fill:none;fill-rule:evenodd;stroke:#000000;stroke-width:0.69999999;stroke-linecap:round;stroke-linejoin:miter;stroke-miterlimit:4;stroke-dasharray:none;stroke-opacity:1;filter:url(#filter56652)"
           d="m 266.43357,333.94729 c 0,0 1.88566,1.90031 3.0303,2.5641 0.78674,0.45624 2.5641,0.9324 2.5641,0.9324"
           id="path56052"
           inkscape:connector-curvature="0"
           sodipodi:nodetypes="cac" />
        <path
           style="fill:none;fill-rule:evenodd;stroke:#000000;stroke-width:1.5;stroke-linecap:round;stroke-linejoin:miter;stroke-miterlimit:4;stroke-dasharray:none;stroke-opacity:1;filter:url(#filter58867)"
           d="m 276.22378,328.11978 c 0,0 1.1101,-1.41402 1.8648,-1.8648 1.39288,-0.83196 3.06529,-1.11087 4.662,-1.3986 3.52502,-0.63522 10.72261,-0.6993 10.72261,-0.6993"
           id="path56054"
           inkscape:connector-curvature="0"
           sodipodi:nodetypes="caac" />
        <path
           style="fill:none;fill-rule:evenodd;stroke:#000000;stroke-width:1px;stroke-linecap:round;stroke-linejoin:miter;stroke-opacity:1;filter:url(#filter56140)"
           d="m 305.36131,318.79577 c 0,0 -0.63661,-1.10104 -1.16551,-1.3986 -1.36952,-0.7705 -3.09497,-0.58243 -4.662,-0.6993 -1.78215,-0.13292 -5.36131,0 -5.36131,0"
           id="path56056"
           inkscape:connector-curvature="0"
           sodipodi:nodetypes="caac" />
        <path
           style="fill:none;fill-rule:evenodd;stroke:#000000;stroke-width:1px;stroke-linecap:round;stroke-linejoin:miter;stroke-opacity:1;filter:url(#filter56208)"
           d="m 272.26107,320.42747 c 0,0 1.27627,-1.41722 2.0979,-1.8648 1.2747,-0.69438 2.78897,-0.80796 4.19581,-1.1655 1.00471,-0.25534 2.04108,-0.38933 3.0303,-0.6993 0.79857,-0.25023 2.331,-0.9324 2.331,-0.9324"
           id="path56058"
           inkscape:connector-curvature="0"
           sodipodi:nodetypes="caaac" />
        <path
           style="fill:none;fill-rule:evenodd;stroke:#000000;stroke-width:1.60000002;stroke-linecap:round;stroke-linejoin:miter;stroke-miterlimit:4;stroke-dasharray:none;stroke-opacity:1;filter:url(#filter58875)"
           d="m 356.98254,323.55921 c 0,0 2.84399,2.2554 4.36409,3.2419 1.28005,0.83072 2.57928,1.66265 3.99003,2.24439 1.87374,0.77266 3.86445,1.26838 5.86035,1.62094 2.05299,0.36265 4.15371,0.62902 6.23441,0.49876 3.26231,-0.20424 9.601,-1.99502 9.601,-1.99502"
           id="path56656"
           inkscape:connector-curvature="0"
           sodipodi:nodetypes="caaaac" />
        <path
           style="fill:none;fill-rule:evenodd;stroke:#000000;stroke-width:0.80000001;stroke-linecap:round;stroke-linejoin:miter;stroke-miterlimit:4;stroke-dasharray:none;stroke-opacity:1;filter:url(#filter57012)"
           d="m 360.72319,336.15273 c 0,0 2.77729,1.52103 4.2394,2.1197 1.49612,0.6126 3.05316,1.07307 4.61347,1.49626 1.68381,0.45669 3.38224,0.89643 5.11222,1.12219 1.8976,0.24764 5.73566,0.24938 5.73566,0.24938"
           id="path56698"
           inkscape:connector-curvature="0"
           sodipodi:nodetypes="caaac" />
        <path
           style="fill:none;fill-rule:evenodd;stroke:#000000;stroke-width:0.89999998;stroke-linecap:round;stroke-linejoin:miter;stroke-miterlimit:4;stroke-dasharray:none;stroke-opacity:1;filter:url(#filter57072)"
           d="m 384.0399,337.15023 c 0,0 3.1706,0.19297 4.73815,0 1.53075,-0.18844 3.04227,-0.58709 4.48878,-1.12219 1.48179,-0.54815 4.2394,-2.1197 4.2394,-2.1197"
           id="path56700"
           inkscape:connector-curvature="0"
           sodipodi:nodetypes="caac" />
        <path
           style="fill:none;fill-rule:evenodd;stroke:#000000;stroke-width:0.60000002;stroke-linecap:round;stroke-linejoin:miter;stroke-miterlimit:4;stroke-dasharray:none;stroke-opacity:1;filter:url(#filter56972)"
           d="m 348.00499,327.42455 c 0,0 1.70912,1.96662 2.74314,2.74314 0.7586,0.56968 2.49377,1.37157 2.49377,1.37157"
           id="path56702"
           inkscape:connector-curvature="0"
           sodipodi:nodetypes="cac" />
        <path
           style="fill:none;fill-rule:evenodd;stroke:#000000;stroke-width:1.20000005;stroke-linecap:round;stroke-linejoin:miter;stroke-miterlimit:4;stroke-dasharray:none;stroke-opacity:1;filter:url(#filter58895)"
           d="m 361.47132,314.83103 c 0,0 3.92726,0.17202 5.86035,0.49876 1.98792,0.336 3.95571,0.83514 5.86035,1.49626 1.93355,0.67116 5.61097,2.49376 5.61097,2.49376"
           id="path56704"
           inkscape:connector-curvature="0"
           sodipodi:nodetypes="caac" />
        <path
           style="fill:none;fill-rule:evenodd;stroke:#000000;stroke-width:0.80000001;stroke-linecap:round;stroke-linejoin:miter;stroke-miterlimit:4;stroke-dasharray:none;stroke-opacity:1;filter:url(#filter56908)"
           d="m 350.37406,305.6041 c 0,0 2.96044,-2.42228 4.61347,-3.36658 1.72965,-0.98807 5.48629,-2.36908 5.48629,-2.36908"
           id="path56706"
           inkscape:connector-curvature="0"
           sodipodi:nodetypes="cac" />
        <path
           style="fill:none;fill-rule:evenodd;stroke:#000000;stroke-width:0.89999998;stroke-linecap:round;stroke-linejoin:miter;stroke-miterlimit:4;stroke-dasharray:none;stroke-opacity:1;filter:url(#filter56872)"
           d="m 360.47382,309.59412 c 0,0 2.33061,-0.0849 3.49127,0 1.42453,0.10419 4.2394,0.62345 4.2394,0.62345"
           id="path56708"
           inkscape:connector-curvature="0"
           sodipodi:nodetypes="cac" />
        <path
           style="fill:none;fill-rule:evenodd;stroke:#000000;stroke-width:1px;stroke-linecap:round;stroke-linejoin:miter;stroke-opacity:1;filter:url(#filter56752)"
           d="m 387.2818,306.35223 c 0,0 4.00959,1.36196 5.86034,2.36908 1.65093,0.89838 4.61347,3.24189 4.61347,3.24189"
           id="path56710"
           inkscape:connector-curvature="0"
           sodipodi:nodetypes="cac" />
        <path
           style="fill:none;fill-rule:evenodd;stroke:#000000;stroke-width:0.89999998;stroke-linecap:round;stroke-linejoin:miter;stroke-miterlimit:4;stroke-dasharray:none;stroke-opacity:1;filter:url(#filter57328)"
           d="m 454.86284,373.80859 c 0,0 2.98432,2.22815 4.61347,3.11721 1.66711,0.90978 3.44512,1.61475 5.23691,2.24438 1.46509,0.51483 4.48878,1.24689 4.48878,1.24689"
           id="path57076"
           inkscape:connector-curvature="0"
           sodipodi:nodetypes="caac" />
        <path
           style="fill:none;fill-rule:evenodd;stroke:#000000;stroke-width:1.10000002;stroke-linecap:round;stroke-linejoin:miter;stroke-miterlimit:4;stroke-dasharray:none;stroke-opacity:1;filter:url(#filter57392)"
           d="m 473.19202,370.69138 c 0,0 2.97315,1.64726 4.36409,2.61846 1.35713,0.9476 3.86534,3.1172 3.86534,3.1172"
           id="path57078"
           inkscape:connector-curvature="0"
           sodipodi:nodetypes="cac" />
        <path
           style="fill:none;fill-rule:evenodd;stroke:#000000;stroke-width:1px;stroke-linecap:round;stroke-linejoin:miter;stroke-opacity:1;filter:url(#filter57440)"
           d="m 486.28429,366.32729 c 0,0 2.71806,1.8359 3.99002,2.86783 1.00525,0.81555 2.86783,2.61846 2.86783,2.61846"
           id="path57080"
           inkscape:connector-curvature="0"
           sodipodi:nodetypes="cac" />
        <path
           style="fill:none;fill-rule:evenodd;stroke:#000000;stroke-width:0.80000001;stroke-linecap:round;stroke-linejoin:miter;stroke-miterlimit:4;stroke-dasharray:none;stroke-opacity:1;filter:url(#filter57628)"
           d="m 449.62594,359.71881 c 0,0 3.30827,-0.70346 4.98753,-0.87281 1.48928,-0.15019 4.48877,-0.12469 4.48877,-0.12469"
           id="path57082"
           inkscape:connector-curvature="0"
           sodipodi:nodetypes="cac" />
        <path
           style="fill:none;fill-rule:evenodd;stroke:#000000;stroke-width:1.10000002;stroke-linecap:round;stroke-linejoin:miter;stroke-miterlimit:4;stroke-dasharray:none;stroke-opacity:1;filter:url(#filter58907)"
           d="m 465.33666,350.2425 c 0,0 5.35558,0.54969 7.98005,1.1222 2.4154,0.5269 4.83454,1.14675 7.10723,2.1197 1.84829,0.79126 5.23691,2.99252 5.23691,2.99252"
           id="path57084"
           inkscape:connector-curvature="0"
           sodipodi:nodetypes="caac" />
        <path
           style="fill:none;fill-rule:evenodd;stroke:#000000;stroke-width:1.20000005;stroke-linecap:round;stroke-linejoin:miter;stroke-miterlimit:4;stroke-dasharray:none;stroke-opacity:1;filter:url(#filter57484)"
           d="m 461.97007,362.08789 c 0,0 4.74043,0.013 7.10724,0.12469 2.16524,0.10218 4.33648,0.20253 6.48379,0.49875 2.09941,0.28961 6.23441,1.24688 6.23441,1.24688"
           id="path57086"
           inkscape:connector-curvature="0"
           sodipodi:nodetypes="caac" />
        <path
           style="fill:none;fill-rule:evenodd;stroke:#000000;stroke-width:1px;stroke-linecap:round;stroke-linejoin:miter;stroke-opacity:1;filter:url(#filter57708)"
           d="m 496.70511,511.67028 2.14168,-1.81219 3.78912,-1.48271"
           id="path57632"
           inkscape:connector-curvature="0" />
        <path
           style="fill:none;fill-rule:evenodd;stroke:#000000;stroke-width:1px;stroke-linecap:round;stroke-linejoin:miter;stroke-opacity:1;filter:url(#filter57664)"
           d="m 503.78913,497.33749 c 0,0 2.02951,-1.72568 3.13015,-2.47117 1.73133,-1.17268 5.43657,-3.13014 5.43657,-3.13014"
           id="path57634"
           inkscape:connector-curvature="0"
           sodipodi:nodetypes="cac" />
        <path
           style="fill:none;fill-rule:evenodd;stroke:#000000;stroke-width:1px;stroke-linecap:round;stroke-linejoin:miter;stroke-opacity:1;filter:url(#filter57758)"
           d="m 562.76771,547.41987 c 0,0 -1.82124,-1.70254 -2.80066,-2.47117 -1.21038,-0.94988 -2.47356,-1.83807 -3.78913,-2.63592 -1.11313,-0.67507 -3.45963,-1.81219 -3.45963,-1.81219"
           id="path57712"
           inkscape:connector-curvature="0"
           sodipodi:nodetypes="caac" />
        <path
           style="fill:none;fill-rule:evenodd;stroke:#000000;stroke-width:1.29999995;stroke-linecap:butt;stroke-linejoin:miter;stroke-miterlimit:4;stroke-dasharray:none;stroke-opacity:1;filter:url(#filter57870)"
           d="m 568.53377,536.38197 c 0,0 -1.50125,-1.15315 -2.30642,-1.64744 -1.2141,-0.74532 -2.49239,-1.38703 -3.78913,-1.97694 -1.23455,-0.56162 -2.50954,-1.03303 -3.78913,-1.4827 -0.86847,-0.3052 -2.63591,-0.82372 -2.63591,-0.82372"
           id="path57762"
           inkscape:connector-curvature="0"
           sodipodi:nodetypes="caaac" />
        <path
           style="fill:none;fill-rule:evenodd;stroke:#000000;stroke-width:0.69999999;stroke-linecap:round;stroke-linejoin:miter;stroke-miterlimit:4;stroke-dasharray:none;stroke-opacity:1;filter:url(#filter57794)"
           d="m 570.51071,527.81525 c 0,0 -1.52259,-0.59556 -2.30643,-0.82372 -1.18957,-0.34625 -2.39938,-0.63842 -3.62438,-0.82372 -0.70795,-0.10709 -2.14168,-0.16475 -2.14168,-0.16475"
           id="path57764"
           inkscape:connector-curvature="0"
           sodipodi:nodetypes="caac" />
      </g>
      <g
         id="g3533">
        <path
           sodipodi:nodetypes="caaaaaaaaaaccc"
           inkscape:connector-curvature="0"
           id="path57874"
           d="m 580.48284,438.4789 c 0,0 -3.8369,5.09485 -5.4326,7.84709 -1.6402,2.82885 -3.0018,5.82076 -4.2254,8.85312 -1.0317,2.55688 -1.8448,5.19985 -2.6157,7.84708 -0.7731,2.65505 -1.6171,5.31131 -2.0121,8.04829 -0.2301,1.59454 -0.3501,3.22482 -0.2012,4.82897 0.1655,1.78196 0.5841,3.55375 1.2073,5.23139 0.5014,1.34992 1.2641,2.59238 2.012,3.82294 0.9761,1.60578 1.9781,3.21698 3.2194,4.62776 1.2546,1.42598 2.7268,2.65582 4.2253,3.82294 1.1447,0.89156 2.2331,1.99403 3.6217,2.41449 0.8987,0.2721 2.8169,0 2.8169,0 l 0.6037,-0.20121 c 34.23525,-66.11229 -3.2193,-57.14286 -3.2193,-57.14286 z"
           style="fill:none;fill-rule:evenodd;stroke:#000000;stroke-width:1px;stroke-linecap:butt;stroke-linejoin:miter;stroke-opacity:1" />
        <path
           style="fill:none;fill-rule:evenodd;stroke:#000000;stroke-width:1px;stroke-linecap:butt;stroke-linejoin:miter;stroke-opacity:1"
           d="m 477.26402,231.83907 c 0,0 -0.6941,5.8995 -1.006,8.85311 -0.2901,2.74761 -0.5999,5.49422 -0.8048,8.2495 -0.1943,2.61192 -0.3354,5.22881 -0.4024,7.84708 -0.038,1.47504 -0.2248,2.96826 0,4.42656 0.2035,1.32074 0.5892,2.6381 1.2072,3.82294 0.5087,0.97531 1.2573,1.8155 2.0121,2.6157 0.9135,0.96844 1.9342,1.84277 3.0181,2.61569 1.1989,0.85489 2.4551,1.66811 3.8229,2.21328 1.345,0.53605 2.7874,0.83721 4.2254,1.00604 1.7985,0.21116 3.6399,0.2561 5.4326,0 1.6598,-0.23713 3.3328,-0.6516 4.8289,-1.40846 1.2808,-0.6479 2.3846,-1.62223 3.4206,-2.61569 1.1342,-1.08769 2.1771,-2.29423 3.0181,-3.62173 1.108,-1.74902 1.8133,-3.72511 2.6157,-5.6338 1.2502,-2.9742 2.319,-6.02189 3.4205,-9.05433 1.0428,-2.87088 2.0951,-5.74029 3.0181,-8.65191 0.4426,-1.39634 1.2072,-4.22535 1.2072,-4.22535 1.01823,-21.62259 -37.70437,-22.61415 -39.0342,-6.43863 z"
           id="path57876"
           inkscape:connector-curvature="0"
           sodipodi:nodetypes="caaaaaaaaaaaaaaaacc" />
        <path
           sodipodi:nodetypes="caaaaaaaaaaaaacc"
           inkscape:connector-curvature="0"
           id="path57878"
           d="m 366.19766,173.48897 c 0,0 -0.376,9.92448 -0.4024,14.88933 -0.022,4.09171 0.07,8.18397 0.2012,12.27364 0.09,2.81865 -0.048,5.66677 0.4024,8.45071 0.278,1.71889 0.7498,3.41835 1.4085,5.03018 0.5791,1.41713 1.1713,2.90259 2.2133,4.02414 1.0889,1.17208 2.5739,1.94019 4.0241,2.6157 1.4617,0.68083 3.042,1.11637 4.6278,1.40845 1.9174,0.35316 3.8871,0.48407 5.835,0.40241 1.7628,-0.0739 3.5748,-0.19778 5.2314,-0.80483 2.2897,-0.83905 4.4742,-2.13831 6.2374,-3.82293 1.8157,-1.73484 3.1073,-3.98875 4.2254,-6.23743 1.6713,-3.3615 2.5685,-7.06069 3.6217,-10.66398 1.2596,-4.3093 2.2857,-8.68699 3.2193,-13.07847 0.5526,-2.5994 1.4085,-7.84709 1.4085,-7.84709 2.08155,-16.54698 -41.19327,-18.2143 -42.2536,-6.63983 z"
           style="fill:none;fill-rule:evenodd;stroke:#000000;stroke-width:1px;stroke-linecap:butt;stroke-linejoin:miter;stroke-opacity:1" />
        <path
           style="fill:none;fill-rule:evenodd;stroke:#000000;stroke-width:1px;stroke-linecap:butt;stroke-linejoin:miter;stroke-opacity:1"
           d="m 277.06213,204.47488 c 0,0 -0.034,7.24362 0,10.86519 0.034,3.6222 0.036,7.2466 0.2012,10.86519 0.1685,3.69471 0.1481,7.42663 0.8049,11.0664 0.2291,1.26984 0.1554,1.32167 1.0862,3.71552 1.0439,1.54048 1.1943,1.63578 1.9319,2.3207 0.8455,0.7852 1.8211,1.429 2.8169,2.01207 1.3385,0.7838 2.7307,1.51753 4.2117,1.9788 1.6272,0.50682 3.3453,0.69794 5.0438,0.8381 1.5374,0.12686 3.0927,0.152 4.6278,0 1.3613,-0.13479 2.7302,-0.36088 4.0241,-0.80483 1.4186,-0.48671 2.7731,-1.18509 4.0242,-2.01207 1.4686,-0.97077 2.8711,-2.09017 4.0241,-3.42052 1.4015,-1.61708 2.4662,-3.51725 3.4205,-5.4326 0.9277,-1.86192 1.6782,-3.82479 2.2133,-5.83501 0.7687,-2.8876 1.0856,-5.88246 1.4085,-8.85312 0.4936,-4.54183 0.8048,-13.68209 0.8048,-13.68209 l 0.2012,-3.42052 c 0.2367,-16.07618 -40.05449,-17.27709 -40.8451,-0.20121 z"
           id="path57880"
           inkscape:connector-curvature="0"
           sodipodi:nodetypes="caaacaaaaaaaaaaaccc" />
        <path
           sodipodi:nodetypes="caaaaaaaaaccsc"
           inkscape:connector-curvature="0"
           id="path57882"
           d="m 177.8308,307.7834 c 0,0 1.5071,5.48162 2.4511,8.16029 0.7701,2.18484 1.3975,4.4683 2.6157,6.43864 1.1746,1.89971 2.6416,3.68766 4.4266,5.03018 1.438,1.08152 3.1124,1.97862 4.8824,2.30191 2.0342,0.37154 4.1576,-0.0792 6.184,-0.49105 1.4549,-0.29567 3.0209,-0.54037 4.2253,-1.40845 1.9044,-1.37256 3.1732,-3.53539 4.2254,-5.6338 1.0654,-2.12479 1.413,-4.54084 2.0121,-6.84105 0.7627,-2.92862 1.5913,-5.85622 2.012,-8.85312 0.5044,-3.59208 0.6037,-10.86519 0.6037,-10.86519 l 0,-1.81086 c -0.62109,-9.12919 -14.07819,-10.40077 -22.92734,-7.88995 -7.67287,2.17706 -10.96432,6.28073 -10.71096,21.86245 z"
           style="fill:none;fill-rule:evenodd;stroke:#000000;stroke-width:1px;stroke-linecap:butt;stroke-linejoin:miter;stroke-opacity:1" />
        <path
           style="fill:none;fill-rule:evenodd;stroke:#000000;stroke-width:1px;stroke-linecap:round;stroke-linejoin:miter;stroke-opacity:1"
           d="m 178.68203,297.89272 c 0,0 2.86778,-1.45301 4.31302,-2.15651 1.94119,-0.94492 3.80668,-2.08556 5.85338,-2.77265 2.3866,-0.8012 4.8853,-1.32701 7.39374,-1.54036 2.86682,-0.24383 5.81396,-0.30057 8.62602,0.30807 1.84522,0.39938 3.57082,1.26915 5.23724,2.15651 0.32681,0.17402 0.92421,0.61614 0.92421,0.61614"
           id="path57884"
           inkscape:connector-curvature="0"
           sodipodi:nodetypes="caaaaac" />
        <path
           style="fill:none;fill-rule:evenodd;stroke:#000000;stroke-width:1px;stroke-linecap:round;stroke-linejoin:miter;stroke-opacity:1"
           d="m 277.26523,203.62254 c 0,0 2.80238,-1.60732 4.31301,-2.15651 2.08338,-0.75742 4.28632,-1.15591 6.46952,-1.54036 2.64695,-0.46612 5.3227,-0.87302 8.00989,-0.92422 2.67736,-0.051 5.3685,0.17572 8.00988,0.61615 2.82531,0.4711 5.71198,0.96772 8.31796,2.15651 1.81406,0.82753 4.92916,3.38879 4.92916,3.38879"
           id="path57886"
           inkscape:connector-curvature="0"
           sodipodi:nodetypes="caaaaac" />
        <path
           style="fill:none;fill-rule:evenodd;stroke:#000000;stroke-width:1px;stroke-linecap:round;stroke-linejoin:miter;stroke-opacity:1"
           d="m 365.9901,176.51216 c 0,0 2.40248,-1.21367 3.69687,-1.54036 2.0013,-0.50511 4.09782,-0.57392 6.16145,-0.61614 3.49679,-0.0715 6.99604,0.25109 10.47446,0.61614 3.40875,0.35774 6.86184,0.63069 10.16639,1.54036 2.88656,0.7946 5.68882,1.95658 8.31796,3.3888 1.10077,0.59964 3.08072,2.15651 3.08072,2.15651"
           id="path57888"
           inkscape:connector-curvature="0"
           sodipodi:nodetypes="caaaaac" />
        <path
           style="fill:none;fill-rule:evenodd;stroke:#000000;stroke-width:1px;stroke-linecap:round;stroke-linejoin:miter;stroke-opacity:1"
           d="m 477.20426,231.96521 c 0,0 3.2278,-1.77183 4.92916,-2.46458 2.4965,-1.01651 5.04739,-1.99569 7.70181,-2.46458 2.53015,-0.44694 5.16506,-0.71588 7.70181,-0.30807 2.59881,0.41778 5.06723,1.54151 7.39374,2.77265 1.88871,0.99947 3.70462,2.20782 5.23724,3.69687 1.47305,1.43118 2.65706,3.15801 3.69686,4.92916 0.51204,0.87219 1.23229,2.77265 1.23229,2.77265"
           id="path57890"
           inkscape:connector-curvature="0"
           sodipodi:nodetypes="caaaaaac" />
        <path
           style="fill:none;fill-rule:evenodd;stroke:#000000;stroke-width:1px;stroke-linecap:round;stroke-linejoin:miter;stroke-opacity:1"
           d="m 576.71167,443.91907 c 0,0 3.25935,-0.84511 4.92916,-0.92422 1.13299,-0.0537 2.27643,0.0863 3.3888,0.30808 1.68819,0.33655 3.45637,0.64921 4.92916,1.54036 2.23653,1.35327 3.95857,3.46787 5.5453,5.5453 1.00508,1.31591 2.46458,4.31302 2.46458,4.31302"
           id="path57892"
           inkscape:connector-curvature="0"
           sodipodi:nodetypes="caaaac" />
      </g>
    </g>
  </g>
</svg>
