<?xml version="1.0" encoding="UTF-8" standalone="no"?>
<!-- Created with Inkscape (http://www.inkscape.org/) -->

<svg
   xmlns:dc="http://purl.org/dc/elements/1.1/"
   xmlns:cc="http://creativecommons.org/ns#"
   xmlns:rdf="http://www.w3.org/1999/02/22-rdf-syntax-ns#"
   xmlns:svg="http://www.w3.org/2000/svg"
   xmlns="http://www.w3.org/2000/svg"
   xmlns:sodipodi="http://sodipodi.sourceforge.net/DTD/sodipodi-0.dtd"
   xmlns:inkscape="http://www.inkscape.org/namespaces/inkscape"
   inkscape:version="0.91 r13725"
   version="1.1"
   id="svg100680"
   viewBox="0 0 211.63331 153.86681"
   height="43.424633mm"
   width="59.727623mm"
   sodipodi:docname="soap.svg">
  <sodipodi:namedview
     inkscape:window-maximized="1"
     inkscape:window-y="1"
     inkscape:window-x="0"
     inkscape:window-height="731"
     inkscape:window-width="1280"
     inkscape:guide-bbox="true"
     showguides="true"
     showgrid="false"
     inkscape:current-layer="layer1"
     inkscape:document-units="px"
     inkscape:cy="82.71611"
     inkscape:cx="82.660792"
     inkscape:zoom="3.2739478"
     inkscape:pageshadow="2"
     inkscape:pageopacity="0.0"
     borderopacity="1.0"
     bordercolor="#666666"
     pagecolor="#ffffff"
     id="base"
     fit-margin-top="0"
     fit-margin-left="0"
     fit-margin-right="0"
     fit-margin-bottom="0" />
  <defs
     id="defs100682" />
  <metadata
     id="metadata100685">
    <rdf:RDF>
      <cc:Work
         rdf:about="">
        <dc:format>image/svg+xml</dc:format>
        <dc:type
           rdf:resource="http://purl.org/dc/dcmitype/StillImage" />
        <dc:title></dc:title>
      </cc:Work>
    </rdf:RDF>
  </metadata>
  <g
     id="layer1"
     inkscape:groupmode="layer"
     inkscape:label="Layer 1"
     transform="translate(-38.560143,-41.269704)">
    <g
       id="g101427"
       transform="translate(-210.78685,-216.38296)">
      <path
         style="fill:none;fill-rule:evenodd;stroke:#000000;stroke-width:1px;stroke-linecap:butt;stroke-linejoin:miter;stroke-opacity:1"
         d="m 270.52779,342.02428 c -4.37935,-4.56506 -9.155,-9.00694 -12.14946,-14.57934 -1.33428,-2.48296 -2.67227,-5.29132 -2.42989,-8.09964 0.20765,-2.4059 1.58858,-4.71768 3.23986,-6.47971 6.09987,-6.50899 15.13217,-9.50347 23.11,-13.49465 28.16363,-14.08983 57.17311,-26.75403 87.04502,-36.72308 5.27969,-1.76197 10.67503,-3.36975 16.19927,-4.04982 4.82337,-0.59378 9.75597,-0.59378 14.57934,0 7.73394,0.95209 15.47982,2.68776 22.67898,5.66975 5.8178,2.40981 11.35917,5.69123 16.19927,9.71956 4.70475,3.91568 8.91468,8.57289 12.14945,13.76938 2.62313,4.21393 4.70647,8.90008 5.66974,13.76938 0.47155,2.38369 0.84304,5.01071 0,7.28967 -1.72721,4.6691 -6.06554,7.95837 -9.71956,11.33948 -6.38147,5.90485 -13.65944,10.82463 -21.05905,15.38931 -9.55745,5.89581 -19.68415,10.87989 -29.96864,15.3893 -12.90753,5.65953 -26.09421,10.85942 -39.68821,14.57935 -10.06222,2.75348 -20.35197,5.33045 -30.77861,5.66974 -4.619,0.15031 -9.22869,-0.75977 -13.76938,-1.61993 -5.21173,-0.98728 -10.7261,-1.52169 -15.3893,-4.04981 -10.25015,-5.55704 -17.84717,-15.075 -25.91883,-23.48894 z"
         id="path100699"
         inkscape:connector-curvature="0"
         sodipodi:nodetypes="aaaaaaaaaaaaaaaaaaaaa" />
      <path
         style="fill:none;fill-rule:evenodd;stroke:#000000;stroke-width:1px;stroke-linecap:butt;stroke-linejoin:miter;stroke-opacity:1"
         d="m 260.23226,311.83048 c 0,0 -5.62672,5.30718 -7.1436,8.75467 -3.01833,6.85991 -3.20585,14.75459 -3.23985,22.24909 -0.0272,5.99464 0.23366,12.24129 2.42989,17.8192 2.05825,5.22747 6.03422,9.52896 9.71956,13.76937 6.20585,7.14055 13.16533,13.69064 20.67898,19.43913 6.54623,5.00835 13.52918,9.60713 21.05905,12.95941 4.37063,1.94579 9.0008,3.66345 13.76937,4.04982 8.67841,0.70317 17.4496,-1.21963 25.91883,-3.23986 18.69032,-4.45835 36.67784,-11.7056 54.26755,-19.43912 10.61327,-4.66625 20.81219,-10.27593 30.77861,-16.19927 7.53135,-4.47611 15.25977,-8.82828 21.86902,-14.57934 2.45257,-2.13411 4.65705,-4.59756 6.4797,-7.28967 1.01537,-1.49974 1.98122,-3.1051 2.42989,-4.85978 1.80709,-7.06729 1.19555,-14.58454 0.80997,-21.86901 -0.3606,-6.81253 -2.91234,-20.25792 -2.91234,-20.25792"
         id="path101241"
         inkscape:connector-curvature="0"
         sodipodi:nodetypes="caaaaaaaaaaaaaac" />
      <path
         inkscape:connector-curvature="0"
         style="font-style:normal;font-variant:normal;font-weight:600;font-stretch:normal;font-size:medium;line-height:125%;font-family:'Hiragino Mincho Pro';-inkscape-font-specification:'Hiragino Mincho Pro Semi-Bold';text-align:center;letter-spacing:0px;word-spacing:0px;text-anchor:middle;fill:#000000;fill-opacity:1;stroke:none;stroke-width:1px;stroke-linecap:butt;stroke-linejoin:miter;stroke-opacity:1"
         d="m 326.59062,299.29646 c -2.13765,0.99193 -3.01614,2.56765 -2.39984,4.31733 0.55765,1.6375 2.18221,3.48365 4.58292,5.21625 2.40039,1.73235 5.25928,3.09966 7.84965,3.757 2.85123,0.73109 5.72621,0.59749 7.87587,-0.3619 2.1574,-0.96284 3.03831,-2.51328 2.47975,-4.28725 -0.4957,-1.61683 -2.1756,-3.51864 -4.62572,-5.28802 -2.42736,-1.75292 -5.27562,-3.12096 -7.91136,-3.76501 -2.91222,-0.73164 -5.72503,-0.57504 -7.85127,0.4116 0,0 0,0 0,0 m -38.95374,18.10217 c -0.96465,0.4476 -1.52296,0.89078 -1.77326,1.42798 -0.54434,1.14581 0.23238,2.65106 2.05098,3.96128 1.53013,1.10241 3.03793,1.66496 4.98958,1.87149 0.78964,0.0843 1.49105,0.10411 3.93053,0.0664 3.61478,-0.0442 5.23832,0.2958 6.75428,1.38833 1.91705,1.3816 2.10949,2.64756 0.51224,3.36149 -2.0265,0.90579 -4.68274,0.25467 -8.26214,-2.02965 0,0 -0.71862,0.32478 -0.71862,0.32478 0,0 5.1544,3.88006 5.1544,3.88006 0.49313,-0.40137 0.6839,-0.53651 0.9904,-0.67344 0.23448,-0.10479 0.49258,-0.19383 0.75361,-0.25862 1.59449,-0.34914 2.09376,-0.49511 2.81883,-0.81872 1.32559,-0.59165 2.02624,-1.42539 2.05741,-2.40281 0.0393,-0.93039 -0.79871,-2.06724 -2.31732,-3.1618 -1.29539,-0.93367 -2.65143,-1.52681 -4.04983,-1.80987 -1.37464,-0.26668 -2.75391,-0.34696 -5.27258,-0.27297 -2.28356,0.0482 -3.06611,0.0129 -4.04748,-0.1663 -0.88255,-0.17166 -1.72252,-0.54414 -2.45563,-1.07238 -1.71074,-1.23264 -1.94354,-2.51954 -0.56794,-3.15696 1.05627,-0.48946 2.56083,-0.44685 4.23753,0.12372 1.13663,0.37236 2.05627,0.84509 3.40046,1.72871 0,0 0.72376,-0.33199 0.72376,-0.33199 0,0 -4.8598,-3.67162 -4.8598,-3.67162 -0.29425,0.42743 -0.47898,0.59108 -0.76665,0.72441 -0.17971,0.0834 -0.40085,0.15891 -0.71919,0.22723 -1.67913,0.38267 -1.97327,0.46732 -2.56357,0.74122 0,0 0,0 0,0 m 13.51645,-6.11089 c 0,0 -1.17453,0.75601 -1.17453,0.75601 0,0 8.76318,10.9109 8.76318,10.9109 1.81711,2.27579 2.03059,3.20097 0.86208,3.74971 0,0 0.58116,0.41889 0.58116,0.41889 0,0 4.72571,-2.11079 4.72571,-2.11079 0,0 -0.58343,-0.42062 -0.58343,-0.42062 -1.26136,0.51177 -2.18242,0.45159 -3.05622,-0.17832 -0.51534,-0.37151 -1.07884,-0.9303 -1.65512,-1.66828 0,0 -1.19207,-1.45975 -1.19207,-1.45975 0,0 4.84676,-2.19248 4.84676,-2.19248 0,0 3.17923,1.46823 3.17923,1.46823 0.73035,0.33102 1.38939,0.6961 1.76848,0.94771 0,0 0.0654,0.0471 0.0654,0.0471 0.74352,0.53616 0.60993,0.94083 -0.5155,1.4968 0,0 0.5851,0.42189 0.5851,0.42189 0,0 6.08513,-2.71797 6.08513,-2.71797 0,0 -0.58803,-0.42413 -0.58803,-0.42413 -0.70896,0.21143 -0.92408,0.25355 -1.24301,0.2642 -0.7014,-0.003 -1.77897,-0.36581 -3.60803,-1.18262 0,0 -17.84626,-8.12654 -17.84626,-8.12654 0,0 0,0 0,0 m 4.71124,-1.97313 c 0,0 0.58776,0.42391 0.58776,0.42391 1.34093,-0.43339 2.10341,-0.27719 5.01184,1.03111 0,0 17.6354,8.00893 17.6354,8.00893 0,0 1.51517,-0.67663 1.51517,-0.67663 0,0 -9.03641,-11.09616 -9.03641,-11.09616 -0.93101,-1.16264 -1.45415,-2.05539 -1.56412,-2.62632 -0.0872,-0.55487 0.0823,-0.87807 0.73212,-1.26023 0,0 -0.59478,-0.42924 -0.59478,-0.42924 0,0 -4.87523,2.26057 -4.87523,2.26057 0,0 0.59237,0.42741 0.59237,0.42741 0.55231,-0.20176 0.8977,-0.30672 1.25197,-0.36272 0.65257,-0.086 1.26311,0.0636 1.8106,0.45865 0.52465,0.37859 1.12233,0.96549 1.74774,1.72869 0,0 7.13697,8.72686 7.13697,8.72686 0,0 -13.43374,-6.17957 -13.43374,-6.17957 -1.21394,-0.56716 -1.98026,-0.96367 -2.43394,-1.29094 -0.22685,-0.16364 -0.40123,-0.37864 -0.40707,-0.5371 -0.0635,-0.26619 0.1012,-0.47897 0.67065,-0.79641 0.0519,-0.0509 0.1816,-0.11123 0.28943,-0.18807 0,0 -0.59074,-0.42616 -0.59074,-0.42616 0,0 -6.04599,2.80342 -6.04599,2.80342 0,0 0,0 0,0 m 29.38058,-13.62328 c 0,0 0.60217,0.43488 0.60217,0.43488 1.69361,-0.61939 2.51125,-0.42071 4.78375,1.22065 0,0 9.2052,6.64864 9.2052,6.64864 3.15152,2.27625 3.50142,3.0138 1.92119,3.82894 0,0 0.62474,0.45118 0.62474,0.45118 0,0 4.9559,-2.21359 4.9559,-2.21359 0,0 -0.62722,-0.45308 -0.62722,-0.45308 -1.8177,0.67737 -2.82433,0.36656 -5.88512,-1.84424 0,0 -10.25208,-7.40505 -10.25208,-7.40505 0,0 23.67339,6.72306 23.67339,6.72306 0,0 1.48772,-0.66437 1.48772,-0.66437 0,0 -13.07021,-9.44508 -13.07021,-9.44508 -1.49722,-1.08197 -2.31459,-1.8133 -2.57837,-2.35675 -0.29089,-0.58677 -0.11063,-0.94945 0.79698,-1.42525 0,0 -0.63305,-0.45751 -0.63305,-0.45751 0,0 -5.01128,2.32365 -5.01128,2.32365 0,0 0.6305,0.45557 0.6305,0.45557 1.07736,-0.41578 1.70538,-0.45558 2.60998,-0.15379 0.81506,0.2604 1.77717,0.83887 3.53057,2.10591 0,0 8.78788,6.35026 8.78788,6.35026 0,0 -21.4863,-6.00951 -21.4863,-6.00951 0,0 -4.06634,1.88549 -4.06634,1.88549 0,0 0,0 0,0 m 22.60436,-10.48126 c 0,0 0.61322,0.44333 0.61322,0.44333 1.63783,-0.73045 2.10145,-0.63654 4.27384,0.93418 0,0 11.52003,8.32936 11.52003,8.32936 2.1707,1.56949 2.22143,1.82339 0.61283,2.59804 0,0 0.61262,0.4429 0.61262,0.4429 0,0 5.93233,-2.64972 5.93233,-2.64972 2.41747,-1.07978 3.81637,-2.17728 4.24886,-3.37217 0.76653,-1.93299 -0.86667,-4.3865 -4.72854,-7.18041 -3.55271,-2.57024 -6.86083,-3.81423 -10.32808,-3.90659 -2.09054,-0.0763 -4.34036,0.45837 -6.66404,1.53582 0,0 -6.09307,2.82526 -6.09307,2.82526 0,0 0,0 0,0 m 16.26549,-7.54204 c 0,0 0.62115,0.44942 0.62115,0.44942 1.68182,-0.75044 2.15433,-0.65649 4.35492,0.93582 0,0 11.66943,8.44383 11.66943,8.44383 2.19884,1.59105 2.2476,1.84956 0.59484,2.64469 0,0 0.62055,0.449 0.62055,0.449 0,0 11.88079,-5.30666 11.88079,-5.30666 0,0 -5.16613,-4.26521 -5.16613,-4.26521 0,0 -0.80006,0.24777 -0.80006,0.24777 3.13843,2.99705 3.19756,4.43738 0.32913,5.72045 0,0 -2.3285,1.04156 -2.3285,1.04156 0,0 -8.3119,-6.01513 -8.3119,-6.01513 0,0 1.5148,-0.68946 1.5148,-0.68946 2.27604,-1.03595 3.28356,-0.92868 5.86946,0.64406 0,0 0.67661,-0.30617 0.67661,-0.30617 0,0 -6.28042,-4.5461 -6.28042,-4.5461 0,0 -0.67334,0.30868 -0.67334,0.30868 2.0283,1.74226 1.98639,2.35885 -0.28842,3.39574 0,0 -1.51399,0.69009 -1.51399,0.69009 0,0 -7.52693,-5.44706 -7.52693,-5.44706 0,0 2.04656,-0.9476 2.04656,-0.9476 2.95676,-1.36901 5.18224,-1.08316 8.97361,1.13636 0,0 0.71495,-0.35661 0.71495,-0.35661 0,0 -5.51473,-3.54239 -5.51473,-3.54239 0,0 -11.46238,5.31492 -11.46238,5.31492 0,0 0,0 0,0 m -46.90316,22.0769 c 1.35984,-0.63016 3.05269,-0.56858 5.1396,0.18649 2.24289,0.82132 4.4659,2.0612 7.16448,4.00974 2.72123,1.96489 4.32562,3.48852 5.2117,4.92619 0.80525,1.31005 0.50995,2.30246 -0.84899,2.90977 -1.37521,0.61459 -3.1335,0.54338 -5.17212,-0.20619 -2.25473,-0.83866 -4.46561,-2.07404 -7.1464,-4.00902 -2.63536,-1.90218 -4.27763,-3.44807 -5.16968,-4.88104 -0.81261,-1.30884 -0.5353,-2.30723 0.82141,-2.93594 0,0 0,0 0,0 m 35.77123,-16.10024 c 0,0 1.22015,-0.56495 1.22015,-0.56495 2.15998,-1.0001 4.45173,-1.18529 6.80671,-0.5266 2.35818,0.65958 4.76238,1.88841 7.42669,3.81567 2.92551,2.11621 4.60226,3.98419 4.80721,5.39672 0.19511,1.13634 -0.69966,2.23339 -2.47485,3.02744 0,0 -1.46365,0.65471 -1.46365,0.65471 0,0 -16.32226,-11.80299 -16.32226,-11.80299 0,0 0,0 0,0 m -60.24131,30.60845 c 0,0 9.40808,4.31498 9.40808,4.31498 0,0 -4.34395,1.96887 -4.34395,1.96887 0,0 -5.06413,-6.28385 -5.06413,-6.28385 0,0 0,0 0,0 m 54.11669,5.13726 c -1.05855,0.46135 -1.67905,0.91758 -1.97671,1.47221 -0.64606,1.18289 0.10208,2.73935 1.97962,4.09463 1.57976,1.14029 3.16734,1.72211 5.24809,1.93778 0.84185,0.088 1.5927,0.10931 4.21007,0.0734 3.87821,-0.0413 5.5982,0.31282 7.16359,1.44313 1.97955,1.42935 2.11826,2.73612 0.36612,3.47134 -2.22277,0.93271 -5.03697,0.25782 -8.7487,-2.10558 0,0 -0.78598,0.33352 -0.78598,0.33352 0,0 5.31016,4.01401 5.31016,4.01401 0.55075,-0.41375 0.76493,-0.55397 1.10106,-0.69495 0.25717,-0.10786 0.5366,-0.19856 0.82,-0.26511 1.72884,-0.35841 2.27444,-0.50942 3.06976,-0.84265 1.45412,-0.60926 2.24928,-1.46848 2.33671,-2.47793 0.0936,-0.96092 -0.74019,-2.13717 -2.30841,-3.26964 -1.33772,-0.96602 -2.75923,-1.58034 -4.24322,-1.87438 -1.45937,-0.27709 -2.93611,-0.36068 -5.64065,-0.28719 -2.45084,0.047 -3.28782,0.01 -4.33003,-0.17647 -0.93667,-0.17833 -1.81449,-0.56496 -2.57145,-1.11138 -1.76633,-1.27509 -1.94549,-2.60464 -0.43605,-3.26159 1.15914,-0.50449 2.76761,-0.45792 4.53398,0.13335 1.19824,0.38593 2.16053,0.87436 3.55328,1.78868 0,0 0.79208,-0.34119 0.79208,-0.34119 0,0 -5.00711,-3.79952 -5.00711,-3.79952 -0.3389,0.44129 -0.54814,0.61115 -0.86386,0.7486 -0.19725,0.0858 -0.43627,0.16279 -0.78131,0.23302 -1.82109,0.39355 -2.14325,0.48163 -2.79104,0.76395 0,0 0,0 0,0 M 330.67,330.96087 c 0,0 -1.20969,0.73313 -1.20969,0.73313 0,0 8.65671,10.84183 8.65671,10.84183 1.79474,2.26128 1.99093,3.17522 0.79194,3.70413 0,0 0.58089,0.41874 0.58089,0.41874 0,0 4.84653,-2.03222 4.84653,-2.03222 0,0 -0.58316,-0.42045 -0.58316,-0.42045 -1.29246,0.49154 -2.22655,0.42289 -3.09995,-0.20678 -0.5151,-0.37136 -1.07492,-0.92777 -1.64375,-1.6609 0,0 -1.17814,-1.45073 -1.17814,-1.45073 0,0 4.97129,-2.1115 4.97129,-2.1115 0,0 3.19613,1.47926 3.19613,1.47926 0.73437,0.33363 1.39555,0.70011 1.77496,0.95194 0,0 0.0654,0.0472 0.0654,0.0472 0.74317,0.53594 0.59847,0.9334 -0.55692,1.46988 0,0 0.58482,0.42173 0.58482,0.42173 0,0 6.24075,-2.61681 6.24075,-2.61681 0,0 -0.58776,-0.42396 -0.58776,-0.42396 -0.72474,0.20117 -0.94416,0.24049 -1.26831,0.24775 -0.7123,-0.01 -1.7986,-0.37857 -3.638,-1.20213 0,0 -17.94368,-8.19004 -17.94368,-8.19004 0,0 0,0 0,0 m -25.26637,11.2102 c 0,0 0.57312,0.41281 0.57312,0.41281 0.72411,-0.28948 1.04318,-0.35011 1.50214,-0.26938 0.59347,0.0734 1.12553,0.35037 2.31707,1.20866 0,0 9.28641,6.6892 9.28641,6.6892 2.95486,2.12845 3.34122,2.82361 1.91969,3.54611 0,0 0.57245,0.41232 0.57245,0.41232 0,0 4.55422,-1.90963 4.55422,-1.90963 0,0 -0.57461,-0.41395 -0.57461,-0.41395 -0.98315,0.33727 -1.55034,0.34745 -2.41699,0.0572 -0.76729,-0.28145 -1.65338,-0.81609 -3.3083,-2.0082 0,0 -10.4626,-7.53669 -10.4626,-7.53669 0,0 19.11899,8.43182 19.11899,8.43182 0,0 0.95991,-0.40289 0.95991,-0.40289 0,0 -9.95119,-12.62678 -9.95119,-12.62678 0,0 12.28845,8.8561 12.28845,8.8561 2.02496,1.45935 2.08106,1.68993 0.61976,2.35423 0,0 0.57783,0.41639 0.57783,0.41639 0,0 5.76837,-2.41874 5.76837,-2.41874 0,0 -0.58054,-0.41846 -0.58054,-0.41846 -1.57989,0.61248 -1.95397,0.51491 -3.98289,-0.94747 0,0 -10.88566,-7.84597 -10.88566,-7.84597 -2.07504,-1.49562 -2.14613,-1.69735 -0.73421,-2.38883 0,0 -0.58105,-0.41883 -0.58105,-0.41883 0,0 -4.2217,1.83862 -4.2217,1.83862 0,0 8.44995,10.7859 8.44995,10.7859 0,0 -16.49578,-7.28181 -16.49578,-7.28181 0,0 -4.31284,1.87831 -4.31284,1.87831 0,0 0,0 0,0 m 32.66318,-14.22535 c 0,0 0.58872,0.42467 0.58872,0.42467 1.576,-0.58063 1.93393,-0.49991 3.99664,0.98812 0,0 11.08149,7.99419 11.08149,7.99419 2.06117,1.48692 2.10954,1.69962 0.59614,2.41257 0,0 0.58814,0.42425 0.58814,0.42425 0,0 6.00374,-2.51743 6.00374,-2.51743 0,0 -0.59096,-0.4264 -0.59096,-0.4264 -1.661,0.61968 -2.02202,0.5378 -4.08732,-0.95227 0,0 -5.08476,-3.66856 -5.08476,-3.66856 0,0 0.773,-0.32999 0.773,-0.32999 1.23681,-0.528 2.31301,-0.44072 4.34438,0.31308 1.83833,0.68067 4.06892,1.66825 8.17657,3.58359 0,0 3.87018,-1.62281 3.87018,-1.62281 0,0 -0.55107,-0.39775 -0.55107,-0.39775 -1.01608,0.32227 -1.78322,0.15032 -4.62577,-1.02695 -3.4941,-1.44711 -4.53218,-1.81628 -5.81337,-2.00344 -1.40654,-0.21143 -2.47013,-0.17638 -3.61464,0.15544 0,0 -0.18284,-0.13195 -0.18284,-0.13195 2.79341,-1.50803 2.81461,-3.17016 0.0509,-5.1648 -1.69043,-1.22002 -3.34875,-1.76779 -5.25272,-1.73218 -1.20583,0.0231 -2.80556,0.42925 -4.42029,1.13249 0,0 -5.84614,2.54609 -5.84614,2.54609 0,0 0,0 0,0 m 25.57954,-11.14031 c 0,0 0.60093,0.43398 0.60093,0.43398 1.61277,-0.67469 2.06583,-0.57671 4.19461,0.9608 0,0 11.2888,8.15332 11.2888,8.15332 2.12716,1.53632 2.17828,1.77939 0.59449,2.49717 0,0 0.60035,0.43357 0.60035,0.43357 0,0 11.38261,-4.77285 11.38261,-4.77285 0,0 -5.0005,-4.10408 -5.0005,-4.10408 0,0 -0.76511,0.21731 -0.76511,0.21731 3.04099,2.87489 3.1068,4.23109 0.35843,5.38522 0,0 -2.22907,0.93605 -2.22907,0.93605 0,0 -8.04032,-5.80779 -8.04032,-5.80779 0,0 1.4496,-0.61955 1.4496,-0.61955 2.18123,-0.93226 3.151,-0.81296 5.64984,0.71292 0,0 0.65058,-0.2764 0.65058,-0.2764 0,0 -6.07436,-4.38872 -6.07436,-4.38872 0,0 -0.6475,0.27877 -0.6475,0.27877 1.96384,1.67501 1.9282,2.2539 -0.25188,3.18702 0,0 -1.44884,0.62014 -1.44884,0.62014 0,0 -7.28088,-5.25922 -7.28088,-5.25922 0,0 1.96178,-0.85314 1.96178,-0.85314 2.83391,-1.23241 4.97421,-0.92177 8.63709,1.23417 0,0 0.68709,-0.32302 0.68709,-0.32302 0,0 -5.33007,-3.43097 -5.33007,-3.43097 0,0 -10.98767,4.7853 -10.98767,4.7853 0,0 0,0 0,0 m 13.37917,-5.82685 c 0,0 0.6073,0.43886 0.6073,0.43886 1.75595,-0.68254 2.15215,-0.58364 4.28019,0.95427 0,0 11.40882,8.24509 11.40882,8.24509 2.14976,1.55361 2.19612,1.77489 0.47679,2.57686 0,0 0.60667,0.4384 0.60667,0.4384 0,0 6.6098,-2.77156 6.6098,-2.77156 0,0 -0.60977,-0.44077 -0.60977,-0.44077 -1.85279,0.69765 -2.24971,0.62306 -4.40392,-0.93397 0,0 -11.43249,-8.26316 -11.43249,-8.26316 -2.13244,-1.5413 -2.20454,-1.78172 -0.57625,-2.57134 0,0 -0.61032,-0.44117 -0.61032,-0.44117 0,0 -6.35682,2.76849 -6.35682,2.76849 0,0 0,0 0,0 m 7.82625,-3.40845 c 0,0 0.61101,0.44169 0.61101,0.44169 1.77793,-0.69156 2.17994,-0.59346 4.32105,0.95446 0,0 11.47891,8.29871 11.47891,8.29871 2.13945,1.54672 2.18765,1.79563 0.46677,2.59876 0,0 0.61039,0.44123 0.61039,0.44123 0,0 11.59355,-4.86129 11.59355,-4.86129 0,0 -5.0815,-4.2324 -5.0815,-4.2324 0,0 -0.83498,0.24511 -0.83498,0.24511 1.31223,1.26375 1.81756,1.91925 2.15768,2.69722 0.47,1.20954 -0.12025,2.1334 -1.88839,2.87589 0,0 -1.9301,0.81051 -1.9301,0.81051 0,0 -13.88243,-10.03757 -13.88243,-10.03757 -2.14558,-1.55135 -2.21705,-1.79377 -0.56742,-2.5932 0,0 -0.61409,-0.44405 -0.61409,-0.44405 0,0 -6.44045,2.80493 -6.44045,2.80493 0,0 0,0 0,0 m 12.72136,-5.54037 c 0,0 0.61707,0.44634 0.61707,0.44634 1.8139,-0.70638 2.22169,-0.60799 4.38404,0.9562 0,0 11.59274,8.38588 11.59274,8.38588 2.16065,1.56297 2.20732,1.81529 0.45012,2.63449 0,0 0.61643,0.44587 0.61643,0.44587 0,0 11.83398,-4.96212 11.83398,-4.96212 0,0 -5.12698,-4.27929 -5.12698,-4.27929 0,0 -0.85135,0.25092 -0.85135,0.25092 1.32236,1.27832 1.82997,1.94185 2.16846,2.73005 0.46645,1.22561 -0.14247,2.1643 -1.94732,2.92221 0,0 -1.97012,0.82731 -1.97012,0.82731 0,0 -14.02036,-10.14324 -14.02036,-10.14324 -2.16691,-1.56769 -2.23731,-1.81341 -0.55268,-2.62889 0,0 -0.6202,-0.44874 -0.6202,-0.44874 0,0 -6.57383,2.86301 -6.57383,2.86301 0,0 0,0 0,0 m 12.90189,-5.61898 c 0,0 0.6232,0.45104 0.6232,0.45104 1.73839,-0.7283 2.21648,-0.62984 4.42432,0.9682 0,0 11.70787,8.47417 11.70787,8.47417 2.20608,1.59677 2.25163,1.85236 0.54168,2.62514 0,0 0.62259,0.4506 0.62259,0.4506 0,0 12.27922,-5.14882 12.27922,-5.14882 0,0 -5.1696,-4.27402 -5.1696,-4.27402 0,0 -0.8218,0.2372 -0.8218,0.2372 3.12998,2.99873 3.15049,4.42764 0.18522,5.67285 0,0 -2.40465,1.00979 -2.40465,1.00979 0,0 -8.33933,-6.0368 -8.33933,-6.0368 0,0 1.56377,-0.66835 1.56377,-0.66835 2.35328,-1.00578 3.3803,-0.89029 5.98253,0.69192 0,0 0.70198,-0.29824 0.70198,-0.29824 0,0 -6.30124,-4.56256 -6.30124,-4.56256 0,0 -0.69867,0.30079 -0.69867,0.30079 2.0279,1.74509 1.96904,2.35575 -0.383,3.36248 0,0 -1.56296,0.66899 -1.56296,0.66899 0,0 -7.5518,-5.46671 -7.5518,-5.46671 0,0 2.11637,-0.92036 2.11637,-0.92036 3.05766,-1.3297 5.32249,-1.02506 9.1401,1.20912 0,0 0.74247,-0.34792 0.74247,-0.34792 0,0 -5.54475,-3.56091 -5.54475,-3.56091 0,0 -11.8535,5.1624 -11.8535,5.1624 0,0 0,0 0,0 m -67.62947,30.21636 c 0,0 1.17035,-0.50897 1.17035,-0.50897 2.28791,-0.99496 4.59675,-0.59992 7.14975,1.24242 2.55263,1.84205 2.67753,3.35958 0.37601,4.34355 0,0 -1.04184,0.44541 -1.04184,0.44541 0,0 -7.65427,-5.52241 -7.65427,-5.52241 0,0 0,0 0,0 m -10.62842,7.27232 c 0,0 9.45875,4.34801 9.45875,4.34801 0,0 -4.45566,1.89625 -4.45566,1.89625 0,0 -5.00309,-6.24426 -5.00309,-6.24426 0,0 0,0 0,0"
         id="path101344" />
      <path
         sodipodi:nodetypes="caacaac"
         inkscape:connector-curvature="0"
         id="path101413"
         d="m 266.40547,324.96475 c 0,0 -0.986,-4.116 -0.61383,-6.13837 0.41403,-2.24986 1.60338,-4.38204 3.06918,-6.13838 1.31105,-1.57092 4.9107,-3.68302 4.9107,-3.68302 0,0 -3.10592,4.36497 -4.29686,6.75221 -0.78042,1.56435 -1.29401,3.25043 -1.84151,4.9107 -0.46651,1.41467 -1.22768,4.29686 -1.22768,4.29686 z"
         style="fill:#000000;fill-opacity:1;fill-rule:evenodd;stroke:#000000;stroke-width:1px;stroke-linecap:round;stroke-linejoin:round;stroke-opacity:1" />
      <path
         style="fill:#000000;fill-opacity:1;fill-rule:evenodd;stroke:#000000;stroke-width:0.85100001;stroke-linecap:round;stroke-linejoin:round;stroke-miterlimit:4;stroke-dasharray:none;stroke-opacity:1"
         d="m 272.22667,324.52638 c 0,0 -0.83321,-3.50258 -0.52252,-5.22521 0.37782,-2.09482 1.40895,-4.13388 2.81524,-5.73181 1.04991,-1.19299 3.97753,-2.62854 3.97753,-2.62854 0,0 -2.6911,2.20289 -3.65764,3.62006 -0.79263,1.16218 -1.27991,2.52433 -1.66889,3.87622 -0.56794,1.97391 -0.94372,6.08928 -0.94372,6.08928 z"
         id="path101415"
         inkscape:connector-curvature="0"
         sodipodi:nodetypes="caacaac" />
      <path
         sodipodi:nodetypes="caacaac"
         inkscape:connector-curvature="0"
         id="path101417"
         d="m 277.49379,319.69188 c 0,0 -0.15129,-1.36184 9.8e-4,-2.01655 0.2796,-1.20215 0.88125,-2.3441 1.63236,-3.32347 0.37587,-0.49009 1.39443,-1.22016 1.39443,-1.22016 0,0 -0.86333,1.16185 -1.20896,1.79507 -0.39079,0.71596 -0.67553,1.48598 -0.96766,2.24754 -0.31727,0.82709 -0.85115,2.51757 -0.85115,2.51757 z"
         style="fill:#000000;fill-opacity:1;fill-rule:evenodd;stroke:#000000;stroke-width:0.49343497;stroke-linecap:round;stroke-linejoin:round;stroke-miterlimit:4;stroke-dasharray:none;stroke-opacity:1" />
      <path
         sodipodi:nodetypes="caacaac"
         inkscape:connector-curvature="0"
         id="path101419"
         d="m 326.24036,383.37448 c 0,0 -3.31067,1.34954 -5.06027,1.40341 -2.08678,0.0642 -4.14281,-0.65007 -6.12704,-1.29939 -1.13517,-0.37147 -3.26661,-1.47264 -3.26661,-1.47264 0,0 2.77634,0.73936 4.18929,0.98881 1.3564,0.23947 2.72791,0.41601 4.10355,0.48526 2.0514,0.10326 6.16108,-0.10545 6.16108,-0.10545 z"
         style="fill:#000000;fill-opacity:1;fill-rule:evenodd;stroke:#000000;stroke-width:0.85100001;stroke-linecap:round;stroke-linejoin:round;stroke-miterlimit:4;stroke-dasharray:none;stroke-opacity:1" />
      <path
         style="fill:#000000;fill-opacity:1;fill-rule:evenodd;stroke:#000000;stroke-width:0.91490984;stroke-linecap:round;stroke-linejoin:round;stroke-miterlimit:4;stroke-dasharray:none;stroke-opacity:1"
         d="m 325.35778,389.23682 c 0,0 -3.5593,1.45089 -5.4403,1.50881 -2.2435,0.069 -4.45393,-0.69889 -6.58718,-1.39697 -1.22042,-0.39937 -3.51193,-1.58324 -3.51193,-1.58324 0,0 2.98484,0.79489 4.5039,1.06307 1.45827,0.25745 2.93278,0.44725 4.41173,0.5217 2.20546,0.11102 6.62378,-0.11337 6.62378,-0.11337 z"
         id="path101421"
         inkscape:connector-curvature="0"
         sodipodi:nodetypes="caacaac" />
      <path
         sodipodi:nodetypes="caacaac"
         inkscape:connector-curvature="0"
         id="path101423"
         d="m 323.4988,396.64203 c 0,0 -2.46168,1.00346 -3.76262,1.04352 -1.55166,0.0477 -3.08043,-0.48336 -4.55584,-0.96617 -0.84406,-0.27622 -2.42892,-1.09501 -2.42892,-1.09501 0,0 2.06438,0.54977 3.11499,0.73525 1.00857,0.17805 2.02837,0.30933 3.05124,0.36082 1.52535,0.0768 4.58115,-0.0784 4.58115,-0.0784 z"
         style="fill:#000000;fill-opacity:1;fill-rule:evenodd;stroke:#000000;stroke-width:0.63277072;stroke-linecap:round;stroke-linejoin:round;stroke-miterlimit:4;stroke-dasharray:none;stroke-opacity:1" />
      <path
         sodipodi:nodetypes="caacaac"
         inkscape:connector-curvature="0"
         id="path101425"
         d="m 418.58958,279.20439 c 0,0 3.83436,0.26729 5.54815,1.04475 2.04403,0.92736 3.68934,2.59128 5.29617,4.15849 0.91925,0.89661 2.4539,2.96962 2.4539,2.96962 0,0 -2.32845,-2.02962 -3.57359,-2.94017 -1.19532,-0.8741 -2.43504,-1.69465 -3.7296,-2.41363 -1.93051,-1.07215 -5.99503,-2.81906 -5.99503,-2.81906 z"
         style="fill:#000000;fill-opacity:1;fill-rule:evenodd;stroke:#000000;stroke-width:0.91490984;stroke-linecap:round;stroke-linejoin:round;stroke-miterlimit:4;stroke-dasharray:none;stroke-opacity:1" />
    </g>
  </g>
</svg>
